<?xml version="1.0" encoding="utf-8"?>
<!-- Generator: Adobe Illustrator 24.2.3, SVG Export Plug-In . SVG Version: 6.00 Build 0)  -->
<svg version="1.1" id="Layer_1" xmlns="http://www.w3.org/2000/svg" xmlns:xlink="http://www.w3.org/1999/xlink" x="0px" y="0px"
	 viewBox="0 0 700 490" style="enable-background:new 0 0 700 490;" xml:space="preserve">
<style type="text/css">
	.st0{fill:url(#SVGID_1_);}
	.st1{fill:url(#SVGID_2_);}
	.st2{fill:url(#SVGID_3_);}
	.st3{fill:url(#SVGID_4_);}
	.st4{fill:url(#SVGID_5_);}
	.st5{fill:url(#SVGID_6_);}
	.st6{fill:url(#SVGID_7_);}
	.st7{fill:url(#SVGID_8_);}
	.st8{fill:url(#SVGID_9_);}
	.st9{fill:url(#SVGID_10_);}
	.st10{fill:url(#SVGID_11_);}
	.st11{fill:url(#SVGID_12_);}
	.st12{fill:url(#SVGID_13_);}
	.st13{fill:url(#SVGID_14_);}
	.st14{fill:url(#SVGID_15_);}
	.st15{fill:url(#SVGID_16_);}
	.st16{fill:url(#SVGID_17_);}
	.st17{fill:url(#SVGID_18_);}
	.st18{fill:url(#SVGID_19_);}
	.st19{fill:url(#SVGID_20_);}
	.st20{fill:url(#SVGID_21_);}
	.st21{fill:url(#SVGID_22_);}
	.st22{fill:url(#SVGID_23_);}
	.st23{display:none;}
	.st24{display:inline;}
	.st25{fill:#303E5C;}
	.st26{fill:#E13338;}
	.st27{fill:#A89996;}
	.st28{fill:#FFFFFF;}
	.st29{fill:#383838;}
	.st30{fill:#E89137;}
	.st31{fill:#514F4F;}
</style>
<g>
	<g>
		<radialGradient id="SVGID_1_" cx="100.5905" cy="83.2031" r="30.0002" gradientUnits="userSpaceOnUse">
			<stop  offset="0.5744" style="stop-color:#130C0E"/>
			<stop  offset="0.7977" style="stop-color:#130C0E"/>
			<stop  offset="1" style="stop-color:#130C0E"/>
		</radialGradient>
		<path class="st0" d="M142.59,83.2c0,3.31-4.28,6-9.56,6H68.16c-5.28,0-9.56-2.69-9.56-6l0,0c0-3.31,4.28-6,9.56-6h64.87
			C138.31,77.2,142.59,79.89,142.59,83.2L142.59,83.2z"/>
	</g>
	<g>
		<radialGradient id="SVGID_2_" cx="101.0066" cy="73.2029" r="14.8227" gradientUnits="userSpaceOnUse">
			<stop  offset="0.5744" style="stop-color:#130C0E"/>
			<stop  offset="0.7977" style="stop-color:#130C0E"/>
			<stop  offset="1" style="stop-color:#130C0E"/>
		</radialGradient>
		<rect x="80.21" y="70.54" class="st1" width="41.58" height="5.33"/>
	</g>
	<g>
		<radialGradient id="SVGID_3_" cx="101.0066" cy="220.1302" r="14.8227" gradientUnits="userSpaceOnUse">
			<stop  offset="0.5744" style="stop-color:#130C0E"/>
			<stop  offset="0.7977" style="stop-color:#130C0E"/>
			<stop  offset="1" style="stop-color:#130C0E"/>
		</radialGradient>
		<rect x="80.21" y="217.46" class="st2" width="41.58" height="5.33"/>
	</g>
	<g>
		<radialGradient id="SVGID_4_" cx="100.7986" cy="92.5363" r="23.2023" gradientUnits="userSpaceOnUse">
			<stop  offset="0.5744" style="stop-color:#130C0E"/>
			<stop  offset="0.7977" style="stop-color:#130C0E"/>
			<stop  offset="1" style="stop-color:#130C0E"/>
		</radialGradient>
		<rect x="68.16" y="89.2" class="st3" width="65.29" height="6.67"/>
	</g>
	<g>
		<radialGradient id="SVGID_5_" cx="100.5905" cy="210.5356" r="30.0002" gradientUnits="userSpaceOnUse">
			<stop  offset="0.5744" style="stop-color:#130C0E"/>
			<stop  offset="0.7977" style="stop-color:#130C0E"/>
			<stop  offset="1" style="stop-color:#130C0E"/>
		</radialGradient>
		<path class="st4" d="M142.59,210.54c0-3.31-4.28-6-9.56-6H68.16c-5.28,0-9.56,2.69-9.56,6l0,0c0,3.31,4.28,6,9.56,6h64.87
			C138.31,216.54,142.59,213.85,142.59,210.54L142.59,210.54z"/>
	</g>
	<g>
		<radialGradient id="SVGID_6_" cx="100.7986" cy="201.2026" r="23.2023" gradientUnits="userSpaceOnUse">
			<stop  offset="0.5744" style="stop-color:#130C0E"/>
			<stop  offset="0.7977" style="stop-color:#130C0E"/>
			<stop  offset="1" style="stop-color:#130C0E"/>
		</radialGradient>
		<rect x="68.16" y="197.87" class="st5" width="65.29" height="6.67"/>
	</g>
	<g>
		<radialGradient id="SVGID_7_" cx="100.7986" cy="146.8696" r="43.7942" gradientUnits="userSpaceOnUse">
			<stop  offset="0.5744" style="stop-color:#130C0E"/>
			<stop  offset="0.7977" style="stop-color:#130C0E"/>
			<stop  offset="1" style="stop-color:#130C0E"/>
		</radialGradient>
		<path class="st6" d="M134.44,198.87H67.16v-104h67.29V198.87z M69.16,196.87h63.29v-100H69.16V196.87z"/>
	</g>
	<g>
		<radialGradient id="SVGID_8_" cx="136.924" cy="146.8696" r="36.1555" gradientUnits="userSpaceOnUse">
			<stop  offset="0.5744" style="stop-color:#130C0E"/>
			<stop  offset="0.7977" style="stop-color:#130C0E"/>
			<stop  offset="1" style="stop-color:#130C0E"/>
		</radialGradient>
		<rect x="133.26" y="95.87" class="st7" width="7.33" height="102"/>
		<radialGradient id="SVGID_9_" cx="136.924" cy="146.8696" r="36.9173" gradientUnits="userSpaceOnUse">
			<stop  offset="0.5744" style="stop-color:#130C0E"/>
			<stop  offset="0.7977" style="stop-color:#130C0E"/>
			<stop  offset="1" style="stop-color:#130C0E"/>
		</radialGradient>
		<path class="st8" d="M141.59,198.87h-9.33v-104h9.33V198.87z M134.26,196.87h5.33v-100h-5.33V196.87z"/>
	</g>
	<g>
		<radialGradient id="SVGID_10_" cx="186.5173" cy="146.8701" r="49.5285" gradientUnits="userSpaceOnUse">
			<stop  offset="0.5744" style="stop-color:#130C0E"/>
			<stop  offset="0.7977" style="stop-color:#130C0E"/>
			<stop  offset="1" style="stop-color:#130C0E"/>
		</radialGradient>
		<path class="st9" d="M162.52,198.87h-21.93c-0.55,0-1-0.45-1-1v-102c0-0.55,0.45-1,1-1h91.85c0.27,0,0.52,0.11,0.71,0.29
			c0.19,0.19,0.29,0.44,0.29,0.71l-0.09,32.25c-1.14,14.58-13.43,25.94-27.98,25.94h-15.7c-14.38,0-26.08,11.7-26.08,26.08
			c0,0.34-0.02,0.68-0.08,1.05v16.69C163.52,198.42,163.07,198.87,162.52,198.87z M141.59,196.87h19.93v-15.76
			c0-0.05,0-0.1,0.01-0.15c0.04-0.3,0.06-0.57,0.06-0.83c0-15.48,12.59-28.08,28.07-28.08h15.7c13.52,0,24.93-10.55,25.99-24.02
			l0.09-31.17h-89.85V196.87z"/>
	</g>
	<g>
		<radialGradient id="SVGID_11_" cx="146.6323" cy="190.3696" r="4.2445" gradientUnits="userSpaceOnUse">
			<stop  offset="0.5744" style="stop-color:#130C0E"/>
			<stop  offset="0.7977" style="stop-color:#130C0E"/>
			<stop  offset="1" style="stop-color:#130C0E"/>
		</radialGradient>
		<path class="st10" d="M146.63,195.49c-1.72,0-3.12-1.4-3.12-3.12v-4c0-1.72,1.4-3.12,3.12-3.12c1.72,0,3.12,1.4,3.12,3.12v4
			C149.76,194.09,148.36,195.49,146.63,195.49z M146.63,187.24c-0.62,0-1.12,0.5-1.12,1.12v4c0,0.62,0.5,1.12,1.12,1.12
			s1.12-0.5,1.12-1.12v-4C147.76,187.75,147.25,187.24,146.63,187.24z"/>
	</g>
	<g>
		<radialGradient id="SVGID_12_" cx="154.8823" cy="190.3696" r="4.2445" gradientUnits="userSpaceOnUse">
			<stop  offset="0.5744" style="stop-color:#130C0E"/>
			<stop  offset="0.7977" style="stop-color:#130C0E"/>
			<stop  offset="1" style="stop-color:#130C0E"/>
		</radialGradient>
		<path class="st11" d="M154.88,195.49c-1.72,0-3.12-1.4-3.12-3.12v-4c0-1.72,1.4-3.12,3.12-3.12c1.72,0,3.12,1.4,3.12,3.12v4
			C158.01,194.09,156.61,195.49,154.88,195.49z M154.88,187.24c-0.62,0-1.12,0.5-1.12,1.12v4c0,0.62,0.5,1.12,1.12,1.12
			s1.12-0.5,1.12-1.12v-4C156.01,187.75,155.5,187.24,154.88,187.24z"/>
	</g>
	<g>
		<radialGradient id="SVGID_13_" cx="146.6323" cy="102.8696" r="4.2445" gradientUnits="userSpaceOnUse">
			<stop  offset="0.5744" style="stop-color:#130C0E"/>
			<stop  offset="0.7977" style="stop-color:#130C0E"/>
			<stop  offset="1" style="stop-color:#130C0E"/>
		</radialGradient>
		<path class="st12" d="M146.63,107.99c-1.72,0-3.12-1.4-3.12-3.12v-4c0-1.72,1.4-3.12,3.12-3.12c1.72,0,3.12,1.4,3.12,3.12v4
			C149.76,106.59,148.36,107.99,146.63,107.99z M146.63,99.74c-0.62,0-1.12,0.5-1.12,1.12v4c0,0.62,0.5,1.12,1.12,1.12
			s1.12-0.5,1.12-1.12v-4C147.76,100.25,147.25,99.74,146.63,99.74z"/>
	</g>
	<g>
		<radialGradient id="SVGID_14_" cx="154.8823" cy="102.8696" r="4.2445" gradientUnits="userSpaceOnUse">
			<stop  offset="0.5744" style="stop-color:#130C0E"/>
			<stop  offset="0.7977" style="stop-color:#130C0E"/>
			<stop  offset="1" style="stop-color:#130C0E"/>
		</radialGradient>
		<path class="st13" d="M154.88,107.99c-1.72,0-3.12-1.4-3.12-3.12v-4c0-1.72,1.4-3.12,3.12-3.12c1.72,0,3.12,1.4,3.12,3.12v4
			C158.01,106.59,156.61,107.99,154.88,107.99z M154.88,99.74c-0.62,0-1.12,0.5-1.12,1.12v4c0,0.62,0.5,1.12,1.12,1.12
			s1.12-0.5,1.12-1.12v-4C156.01,100.25,155.5,99.74,154.88,99.74z"/>
	</g>
	<g>
		<radialGradient id="SVGID_15_" cx="162.8823" cy="102.8696" r="4.2445" gradientUnits="userSpaceOnUse">
			<stop  offset="0.5744" style="stop-color:#130C0E"/>
			<stop  offset="0.7977" style="stop-color:#130C0E"/>
			<stop  offset="1" style="stop-color:#130C0E"/>
		</radialGradient>
		<path class="st14" d="M162.88,107.99c-1.72,0-3.12-1.4-3.12-3.12v-4c0-1.72,1.4-3.12,3.12-3.12c1.72,0,3.12,1.4,3.12,3.12v4
			C166.01,106.59,164.61,107.99,162.88,107.99z M162.88,99.74c-0.62,0-1.12,0.5-1.12,1.12v4c0,0.62,0.5,1.12,1.12,1.12
			s1.12-0.5,1.12-1.12v-4C164.01,100.25,163.5,99.74,162.88,99.74z"/>
	</g>
	<g>
		<radialGradient id="SVGID_16_" cx="171.1323" cy="102.8696" r="4.2445" gradientUnits="userSpaceOnUse">
			<stop  offset="0.5744" style="stop-color:#130C0E"/>
			<stop  offset="0.7977" style="stop-color:#130C0E"/>
			<stop  offset="1" style="stop-color:#130C0E"/>
		</radialGradient>
		<path class="st15" d="M171.13,107.99c-1.72,0-3.12-1.4-3.12-3.12v-4c0-1.72,1.4-3.12,3.12-3.12c1.72,0,3.12,1.4,3.12,3.12v4
			C174.26,106.59,172.86,107.99,171.13,107.99z M171.13,99.74c-0.62,0-1.12,0.5-1.12,1.12v4c0,0.62,0.5,1.12,1.12,1.12
			s1.12-0.5,1.12-1.12v-4C172.26,100.25,171.75,99.74,171.13,99.74z"/>
	</g>
	<g>
		<radialGradient id="SVGID_17_" cx="178.3823" cy="102.8696" r="4.2445" gradientUnits="userSpaceOnUse">
			<stop  offset="0.5744" style="stop-color:#130C0E"/>
			<stop  offset="0.7977" style="stop-color:#130C0E"/>
			<stop  offset="1" style="stop-color:#130C0E"/>
		</radialGradient>
		<path class="st16" d="M178.38,107.99c-1.72,0-3.12-1.4-3.12-3.12v-4c0-1.72,1.4-3.12,3.12-3.12c1.72,0,3.12,1.4,3.12,3.12v4
			C181.51,106.59,180.11,107.99,178.38,107.99z M178.38,99.74c-0.62,0-1.12,0.5-1.12,1.12v4c0,0.62,0.5,1.12,1.12,1.12
			s1.12-0.5,1.12-1.12v-4C179.51,100.25,179,99.74,178.38,99.74z"/>
	</g>
	<g>
		<radialGradient id="SVGID_18_" cx="186.6323" cy="102.8696" r="4.2445" gradientUnits="userSpaceOnUse">
			<stop  offset="0.5744" style="stop-color:#130C0E"/>
			<stop  offset="0.7977" style="stop-color:#130C0E"/>
			<stop  offset="1" style="stop-color:#130C0E"/>
		</radialGradient>
		<path class="st17" d="M186.63,107.99c-1.72,0-3.12-1.4-3.12-3.12v-4c0-1.72,1.4-3.12,3.12-3.12c1.72,0,3.12,1.4,3.12,3.12v4
			C189.76,106.59,188.36,107.99,186.63,107.99z M186.63,99.74c-0.62,0-1.12,0.5-1.12,1.12v4c0,0.62,0.5,1.12,1.12,1.12
			s1.12-0.5,1.12-1.12v-4C187.76,100.25,187.25,99.74,186.63,99.74z"/>
	</g>
	<g>
		<radialGradient id="SVGID_19_" cx="194.6323" cy="102.8696" r="4.2445" gradientUnits="userSpaceOnUse">
			<stop  offset="0.5744" style="stop-color:#130C0E"/>
			<stop  offset="0.7977" style="stop-color:#130C0E"/>
			<stop  offset="1" style="stop-color:#130C0E"/>
		</radialGradient>
		<path class="st18" d="M194.63,107.99c-1.72,0-3.12-1.4-3.12-3.12v-4c0-1.72,1.4-3.12,3.12-3.12c1.72,0,3.12,1.4,3.12,3.12v4
			C197.76,106.59,196.36,107.99,194.63,107.99z M194.63,99.74c-0.62,0-1.12,0.5-1.12,1.12v4c0,0.62,0.5,1.12,1.12,1.12
			s1.12-0.5,1.12-1.12v-4C195.76,100.25,195.25,99.74,194.63,99.74z"/>
	</g>
	<g>
		<radialGradient id="SVGID_20_" cx="202.8823" cy="102.8696" r="4.2445" gradientUnits="userSpaceOnUse">
			<stop  offset="0.5744" style="stop-color:#130C0E"/>
			<stop  offset="0.7977" style="stop-color:#130C0E"/>
			<stop  offset="1" style="stop-color:#130C0E"/>
		</radialGradient>
		<path class="st19" d="M202.88,107.99c-1.72,0-3.12-1.4-3.12-3.12v-4c0-1.72,1.4-3.12,3.12-3.12c1.72,0,3.12,1.4,3.12,3.12v4
			C206.01,106.59,204.61,107.99,202.88,107.99z M202.88,99.74c-0.62,0-1.12,0.5-1.12,1.12v4c0,0.62,0.5,1.12,1.12,1.12
			s1.12-0.5,1.12-1.12v-4C204.01,100.25,203.5,99.74,202.88,99.74z"/>
	</g>
	<g>
		<radialGradient id="SVGID_21_" cx="210.3823" cy="102.8696" r="4.2445" gradientUnits="userSpaceOnUse">
			<stop  offset="0.5744" style="stop-color:#130C0E"/>
			<stop  offset="0.7977" style="stop-color:#130C0E"/>
			<stop  offset="1" style="stop-color:#130C0E"/>
		</radialGradient>
		<path class="st20" d="M210.38,107.99c-1.72,0-3.12-1.4-3.12-3.12v-4c0-1.72,1.4-3.12,3.12-3.12c1.72,0,3.12,1.4,3.12,3.12v4
			C213.51,106.59,212.11,107.99,210.38,107.99z M210.38,99.74c-0.62,0-1.12,0.5-1.12,1.12v4c0,0.62,0.5,1.12,1.12,1.12
			s1.12-0.5,1.12-1.12v-4C211.51,100.25,211,99.74,210.38,99.74z"/>
	</g>
	<g>
		<radialGradient id="SVGID_22_" cx="218.6323" cy="102.8696" r="4.2445" gradientUnits="userSpaceOnUse">
			<stop  offset="0.5744" style="stop-color:#130C0E"/>
			<stop  offset="0.7977" style="stop-color:#130C0E"/>
			<stop  offset="1" style="stop-color:#130C0E"/>
		</radialGradient>
		<path class="st21" d="M218.63,107.99c-1.72,0-3.12-1.4-3.12-3.12v-4c0-1.72,1.4-3.12,3.12-3.12c1.72,0,3.12,1.4,3.12,3.12v4
			C221.76,106.59,220.36,107.99,218.63,107.99z M218.63,99.74c-0.62,0-1.12,0.5-1.12,1.12v4c0,0.62,0.5,1.12,1.12,1.12
			s1.12-0.5,1.12-1.12v-4C219.76,100.25,219.25,99.74,218.63,99.74z"/>
	</g>
	<g>
		<radialGradient id="SVGID_23_" cx="226.6323" cy="102.8696" r="4.2445" gradientUnits="userSpaceOnUse">
			<stop  offset="0.5744" style="stop-color:#130C0E"/>
			<stop  offset="0.7977" style="stop-color:#130C0E"/>
			<stop  offset="1" style="stop-color:#130C0E"/>
		</radialGradient>
		<path class="st22" d="M226.63,107.99c-1.72,0-3.12-1.4-3.12-3.12v-4c0-1.72,1.4-3.12,3.12-3.12c1.72,0,3.12,1.4,3.12,3.12v4
			C229.76,106.59,228.36,107.99,226.63,107.99z M226.63,99.74c-0.62,0-1.12,0.5-1.12,1.12v4c0,0.62,0.5,1.12,1.12,1.12
			s1.12-0.5,1.12-1.12v-4C227.76,100.25,227.25,99.74,226.63,99.74z"/>
	</g>
</g>
<g class="st23">
	<g class="st24">
		<rect x="289.68" y="73.54" class="st25" width="41.58" height="5.33"/>
	</g>
	<g class="st24">
		<path class="st25" d="M343.91,96.87h-67.29V88.2h67.29V96.87z M278.62,94.87h63.29V90.2h-63.29V94.87z"/>
	</g>
	<g class="st24">
		<path class="st25" d="M343.91,205.54h-67.29v-8.67h67.29V205.54z M278.62,203.54h63.29v-4.67h-63.29V203.54z"/>
	</g>
	<g class="st24">
		<rect x="277.62" y="95.87" class="st26" width="65.29" height="102"/>
		<path class="st25" d="M343.91,198.87h-67.29v-104h67.29V198.87z M278.62,196.87h63.29v-100h-63.29V196.87z"/>
	</g>
	<g class="st24">
		<rect x="342.72" y="95.87" class="st25" width="7.33" height="102"/>
	</g>
	<g class="st24">
		<path class="st27" d="M350.06,95.87v66.87v35.13h21.93v-16.76c0.04-0.31,0.07-0.63,0.07-0.98c0-14.95,12.12-27.08,27.07-27.08h0
			h15.7c14.23,0,25.89-10.99,26.98-24.94l0.09-32.25H350.06z"/>
		<path class="st25" d="M371.98,198.87h-21.93c-0.55,0-1-0.45-1-1v-102c0-0.55,0.45-1,1-1h91.85c0.27,0,0.52,0.11,0.71,0.29
			c0.19,0.19,0.29,0.44,0.29,0.71l-0.09,32.25c-1.14,14.58-13.43,25.94-27.98,25.94h-15.7c-14.38,0-26.08,11.7-26.08,26.08
			c0,0.34-0.02,0.68-0.07,1.05v16.69C372.98,198.42,372.54,198.87,371.98,198.87z M351.06,196.87h19.93v-15.76
			c0-0.05,0-0.1,0.01-0.14c0.04-0.29,0.06-0.57,0.06-0.83c0-15.48,12.59-28.08,28.07-28.08h15.7c13.52,0,24.93-10.55,25.99-24.02
			l0.09-31.17h-89.85V196.87z"/>
	</g>
	<g class="st24">
		<g>
			<path class="st28" d="M358.22,192.37c0,1.17-0.95,2.12-2.12,2.12l0,0c-1.17,0-2.12-0.95-2.12-2.12v-4c0-1.17,0.95-2.12,2.12-2.12
				l0,0c1.17,0,2.12,0.95,2.12,2.12V192.37z"/>
			<path class="st25" d="M356.1,195.49c-1.72,0-3.12-1.4-3.12-3.12v-4c0-1.72,1.4-3.12,3.12-3.12c1.72,0,3.12,1.4,3.12,3.12v4
				C359.22,194.09,357.82,195.49,356.1,195.49z M356.1,187.24c-0.62,0-1.12,0.5-1.12,1.12v4c0,0.62,0.5,1.12,1.12,1.12
				c0.62,0,1.12-0.5,1.12-1.12v-4C357.22,187.75,356.72,187.24,356.1,187.24z"/>
		</g>
		<g>
			<path class="st28" d="M366.47,192.37c0,1.17-0.95,2.12-2.12,2.12l0,0c-1.17,0-2.12-0.95-2.12-2.12v-4c0-1.17,0.95-2.12,2.12-2.12
				l0,0c1.17,0,2.12,0.95,2.12,2.12V192.37z"/>
			<path class="st25" d="M364.35,195.49c-1.72,0-3.12-1.4-3.12-3.12v-4c0-1.72,1.4-3.12,3.12-3.12c1.72,0,3.12,1.4,3.12,3.12v4
				C367.47,194.09,366.07,195.49,364.35,195.49z M364.35,187.24c-0.62,0-1.12,0.5-1.12,1.12v4c0,0.62,0.5,1.12,1.12,1.12
				c0.62,0,1.12-0.5,1.12-1.12v-4C365.47,187.75,364.97,187.24,364.35,187.24z"/>
		</g>
		<g>
			<path class="st28" d="M358.22,104.87c0,1.17-0.95,2.12-2.12,2.12l0,0c-1.17,0-2.12-0.95-2.12-2.12v-4c0-1.17,0.95-2.12,2.12-2.12
				l0,0c1.17,0,2.12,0.95,2.12,2.12V104.87z"/>
			<path class="st25" d="M356.1,107.99c-1.72,0-3.12-1.4-3.12-3.12v-4c0-1.72,1.4-3.12,3.12-3.12c1.72,0,3.12,1.4,3.12,3.12v4
				C359.22,106.59,357.82,107.99,356.1,107.99z M356.1,99.74c-0.62,0-1.12,0.5-1.12,1.12v4c0,0.62,0.5,1.12,1.12,1.12
				c0.62,0,1.12-0.5,1.12-1.12v-4C357.22,100.25,356.72,99.74,356.1,99.74z"/>
		</g>
		<g>
			<path class="st28" d="M366.47,104.87c0,1.17-0.95,2.12-2.12,2.12l0,0c-1.17,0-2.12-0.95-2.12-2.12v-4c0-1.17,0.95-2.12,2.12-2.12
				l0,0c1.17,0,2.12,0.95,2.12,2.12V104.87z"/>
			<path class="st25" d="M364.35,107.99c-1.72,0-3.12-1.4-3.12-3.12v-4c0-1.72,1.4-3.12,3.12-3.12c1.72,0,3.12,1.4,3.12,3.12v4
				C367.47,106.59,366.07,107.99,364.35,107.99z M364.35,99.74c-0.62,0-1.12,0.5-1.12,1.12v4c0,0.62,0.5,1.12,1.12,1.12
				c0.62,0,1.12-0.5,1.12-1.12v-4C365.47,100.25,364.97,99.74,364.35,99.74z"/>
		</g>
		<g>
			<path class="st28" d="M374.47,104.87c0,1.17-0.95,2.12-2.12,2.12l0,0c-1.17,0-2.12-0.95-2.12-2.12v-4c0-1.17,0.95-2.12,2.12-2.12
				l0,0c1.17,0,2.12,0.95,2.12,2.12V104.87z"/>
			<path class="st25" d="M372.35,107.99c-1.72,0-3.12-1.4-3.12-3.12v-4c0-1.72,1.4-3.12,3.12-3.12c1.72,0,3.12,1.4,3.12,3.12v4
				C375.47,106.59,374.07,107.99,372.35,107.99z M372.35,99.74c-0.62,0-1.12,0.5-1.12,1.12v4c0,0.62,0.5,1.12,1.12,1.12
				c0.62,0,1.12-0.5,1.12-1.12v-4C373.47,100.25,372.97,99.74,372.35,99.74z"/>
		</g>
		<g>
			<path class="st28" d="M382.72,104.87c0,1.17-0.95,2.12-2.12,2.12l0,0c-1.17,0-2.12-0.95-2.12-2.12v-4c0-1.17,0.95-2.12,2.12-2.12
				l0,0c1.17,0,2.12,0.95,2.12,2.12V104.87z"/>
			<path class="st25" d="M380.6,107.99c-1.72,0-3.12-1.4-3.12-3.12v-4c0-1.72,1.4-3.12,3.12-3.12c1.72,0,3.12,1.4,3.12,3.12v4
				C383.72,106.59,382.32,107.99,380.6,107.99z M380.6,99.74c-0.62,0-1.12,0.5-1.12,1.12v4c0,0.62,0.5,1.12,1.12,1.12
				c0.62,0,1.12-0.5,1.12-1.12v-4C381.72,100.25,381.22,99.74,380.6,99.74z"/>
		</g>
		<g>
			<path class="st28" d="M389.97,104.87c0,1.17-0.95,2.12-2.12,2.12l0,0c-1.17,0-2.12-0.95-2.12-2.12v-4c0-1.17,0.95-2.12,2.12-2.12
				l0,0c1.17,0,2.12,0.95,2.12,2.12V104.87z"/>
			<path class="st25" d="M387.85,107.99c-1.72,0-3.12-1.4-3.12-3.12v-4c0-1.72,1.4-3.12,3.12-3.12c1.72,0,3.12,1.4,3.12,3.12v4
				C390.97,106.59,389.57,107.99,387.85,107.99z M387.85,99.74c-0.62,0-1.12,0.5-1.12,1.12v4c0,0.62,0.5,1.12,1.12,1.12
				c0.62,0,1.12-0.5,1.12-1.12v-4C388.97,100.25,388.47,99.74,387.85,99.74z"/>
		</g>
		<g>
			<path class="st28" d="M398.22,104.87c0,1.17-0.95,2.12-2.12,2.12l0,0c-1.17,0-2.12-0.95-2.12-2.12v-4c0-1.17,0.95-2.12,2.12-2.12
				l0,0c1.17,0,2.12,0.95,2.12,2.12V104.87z"/>
			<path class="st25" d="M396.1,107.99c-1.72,0-3.12-1.4-3.12-3.12v-4c0-1.72,1.4-3.12,3.12-3.12c1.72,0,3.12,1.4,3.12,3.12v4
				C399.22,106.59,397.82,107.99,396.1,107.99z M396.1,99.74c-0.62,0-1.12,0.5-1.12,1.12v4c0,0.62,0.5,1.12,1.12,1.12
				c0.62,0,1.12-0.5,1.12-1.12v-4C397.22,100.25,396.72,99.74,396.1,99.74z"/>
		</g>
		<g>
			<path class="st28" d="M406.22,104.87c0,1.17-0.95,2.12-2.12,2.12l0,0c-1.17,0-2.12-0.95-2.12-2.12v-4c0-1.17,0.95-2.12,2.12-2.12
				l0,0c1.17,0,2.12,0.95,2.12,2.12V104.87z"/>
			<path class="st25" d="M404.1,107.99c-1.72,0-3.12-1.4-3.12-3.12v-4c0-1.72,1.4-3.12,3.12-3.12c1.72,0,3.12,1.4,3.12,3.12v4
				C407.22,106.59,405.82,107.99,404.1,107.99z M404.1,99.74c-0.62,0-1.12,0.5-1.12,1.12v4c0,0.62,0.5,1.12,1.12,1.12
				c0.62,0,1.12-0.5,1.12-1.12v-4C405.22,100.25,404.72,99.74,404.1,99.74z"/>
		</g>
		<g>
			<path class="st28" d="M414.47,104.87c0,1.17-0.95,2.12-2.12,2.12l0,0c-1.17,0-2.12-0.95-2.12-2.12v-4c0-1.17,0.95-2.12,2.12-2.12
				l0,0c1.17,0,2.12,0.95,2.12,2.12V104.87z"/>
			<path class="st25" d="M412.35,107.99c-1.72,0-3.12-1.4-3.12-3.12v-4c0-1.72,1.4-3.12,3.12-3.12c1.72,0,3.12,1.4,3.12,3.12v4
				C415.47,106.59,414.07,107.99,412.35,107.99z M412.35,99.74c-0.62,0-1.12,0.5-1.12,1.12v4c0,0.62,0.5,1.12,1.12,1.12
				c0.62,0,1.12-0.5,1.12-1.12v-4C413.47,100.25,412.97,99.74,412.35,99.74z"/>
		</g>
		<g>
			<path class="st28" d="M421.97,104.87c0,1.17-0.95,2.12-2.12,2.12l0,0c-1.17,0-2.12-0.95-2.12-2.12v-4c0-1.17,0.95-2.12,2.12-2.12
				l0,0c1.17,0,2.12,0.95,2.12,2.12V104.87z"/>
			<path class="st25" d="M419.85,107.99c-1.72,0-3.12-1.4-3.12-3.12v-4c0-1.72,1.4-3.12,3.12-3.12c1.72,0,3.12,1.4,3.12,3.12v4
				C422.97,106.59,421.57,107.99,419.85,107.99z M419.85,99.74c-0.62,0-1.12,0.5-1.12,1.12v4c0,0.62,0.5,1.12,1.12,1.12
				c0.62,0,1.12-0.5,1.12-1.12v-4C420.97,100.25,420.47,99.74,419.85,99.74z"/>
		</g>
		<g>
			<path class="st28" d="M430.22,104.87c0,1.17-0.95,2.12-2.12,2.12l0,0c-1.17,0-2.12-0.95-2.12-2.12v-4c0-1.17,0.95-2.12,2.12-2.12
				l0,0c1.17,0,2.12,0.95,2.12,2.12V104.87z"/>
			<path class="st25" d="M428.1,107.99c-1.72,0-3.12-1.4-3.12-3.12v-4c0-1.72,1.4-3.12,3.12-3.12c1.72,0,3.12,1.4,3.12,3.12v4
				C431.22,106.59,429.82,107.99,428.1,107.99z M428.1,99.74c-0.62,0-1.12,0.5-1.12,1.12v4c0,0.62,0.5,1.12,1.12,1.12
				c0.62,0,1.12-0.5,1.12-1.12v-4C429.22,100.25,428.72,99.74,428.1,99.74z"/>
		</g>
		<g>
			<path class="st28" d="M438.22,104.87c0,1.17-0.95,2.12-2.12,2.12l0,0c-1.17,0-2.12-0.95-2.12-2.12v-4c0-1.17,0.95-2.12,2.12-2.12
				l0,0c1.17,0,2.12,0.95,2.12,2.12V104.87z"/>
			<path class="st25" d="M436.1,107.99c-1.72,0-3.12-1.4-3.12-3.12v-4c0-1.72,1.4-3.12,3.12-3.12c1.72,0,3.12,1.4,3.12,3.12v4
				C439.22,106.59,437.82,107.99,436.1,107.99z M436.1,99.74c-0.62,0-1.12,0.5-1.12,1.12v4c0,0.62,0.5,1.12,1.12,1.12
				c0.62,0,1.12-0.5,1.12-1.12v-4C437.22,100.25,436.72,99.74,436.1,99.74z"/>
		</g>
	</g>
	<g class="st24">
		<rect x="272.65" y="78.08" class="st25" width="73.74" height="10.59"/>
	</g>
	<g class="st24">
		<rect x="272.65" y="204.2" class="st25" width="73.74" height="10.59"/>
	</g>
</g>
<g class="st23">
	<g class="st24">
		<rect x="501.01" y="73.54" class="st29" width="41.58" height="5.33"/>
	</g>
	<g class="st24">
		<rect x="501.01" y="212.13" class="st29" width="41.58" height="5.33"/>
	</g>
	<g class="st24">
		<path class="st29" d="M555.24,96.87h-67.29V88.2h67.29V96.87z M489.96,94.87h63.29V90.2h-63.29V94.87z"/>
	</g>
	<g class="st24">
		<path class="st29" d="M555.24,205.54h-67.29v-8.67h67.29V205.54z M489.96,203.54h63.29v-4.67h-63.29V203.54z"/>
	</g>
	<g class="st24">
		<path class="st29" d="M555.24,198.87h-67.29v-104h67.29V198.87z M489.96,196.87h63.29v-100h-63.29V196.87z"/>
	</g>
	<g class="st24">
		<rect x="554.06" y="95.87" class="st29" width="7.33" height="102"/>
		<path class="st29" d="M562.39,198.87h-9.33v-104h9.33V198.87z M555.06,196.87h5.33v-100h-5.33V196.87z"/>
	</g>
	<g class="st24">
		<path class="st29" d="M584.32,198.87h-23.93v-104h95.86l-0.09,33.25c-1.14,14.58-13.43,25.94-27.98,25.94h-17.7
			c-14.38,0-26.08,11.7-26.08,26.08c0,0.34-0.02,0.68-0.07,1.05V198.87z M562.39,196.87h19.93l0.01-15.9
			c0.04-0.29,0.06-0.57,0.06-0.83c0-15.48,12.59-28.08,28.07-28.08h17.7c13.52,0,24.93-10.55,25.99-24.02l0.09-31.17h-91.85V196.87z
			"/>
	</g>
	<g class="st24">
		<path class="st29" d="M567.34,196.01c-2.26,0-4.04-1.26-4.04-2.88v-3.53c0-1.61,1.77-2.88,4.04-2.88c2.26,0,4.04,1.26,4.04,2.88
			v3.53C571.38,194.75,569.61,196.01,567.34,196.01z M567.34,188.73c-1.24,0-2.04,0.57-2.04,0.88v3.53c0,0.3,0.79,0.88,2.04,0.88
			c1.24,0,2.04-0.58,2.04-0.88v-3.53C569.38,189.3,568.59,188.73,567.34,188.73z"/>
	</g>
	<g class="st24">
		<path class="st29" d="M577.46,196.01c-2.26,0-4.04-1.26-4.04-2.88v-3.53c0-1.61,1.77-2.88,4.04-2.88c2.26,0,4.04,1.26,4.04,2.88
			v3.53C581.5,194.75,579.73,196.01,577.46,196.01z M577.46,188.73c-1.24,0-2.04,0.57-2.04,0.88v3.53c0,0.3,0.79,0.88,2.04,0.88
			c1.24,0,2.04-0.58,2.04-0.88v-3.53C579.5,189.3,578.71,188.73,577.46,188.73z"/>
	</g>
	<g class="st24">
		<path class="st29" d="M568.34,107.99c-2.26,0-4.04-1.26-4.04-2.88v-3.53c0-1.61,1.77-2.88,4.04-2.88c2.26,0,4.04,1.26,4.04,2.88
			v3.53C572.38,106.73,570.61,107.99,568.34,107.99z M568.34,100.71c-1.24,0-2.04,0.57-2.04,0.88v3.53c0,0.3,0.79,0.88,2.04,0.88
			c1.24,0,2.04-0.58,2.04-0.88v-3.53C570.38,101.29,569.59,100.71,568.34,100.71z"/>
	</g>
	<g class="st24">
		<path class="st29" d="M578.46,107.99c-2.26,0-4.04-1.26-4.04-2.88v-3.53c0-1.61,1.77-2.88,4.04-2.88c2.26,0,4.04,1.26,4.04,2.88
			v3.53C582.5,106.73,580.73,107.99,578.46,107.99z M578.46,100.71c-1.24,0-2.04,0.57-2.04,0.88v3.53c0,0.3,0.79,0.88,2.04,0.88
			c1.24,0,2.04-0.58,2.04-0.88v-3.53C580.5,101.29,579.71,100.71,578.46,100.71z"/>
	</g>
	<g class="st24">
		<path class="st29" d="M588.84,107.99c-2.26,0-4.04-1.26-4.04-2.88v-3.53c0-1.61,1.77-2.88,4.04-2.88c2.26,0,4.04,1.26,4.04,2.88
			v3.53C592.88,106.73,591.11,107.99,588.84,107.99z M588.84,100.71c-1.24,0-2.04,0.57-2.04,0.88v3.53c0,0.3,0.79,0.88,2.04,0.88
			c1.24,0,2.04-0.58,2.04-0.88v-3.53C590.88,101.29,590.09,100.71,588.84,100.71z"/>
	</g>
	<g class="st24">
		<path class="st29" d="M598.96,107.99c-2.26,0-4.04-1.26-4.04-2.88v-3.53c0-1.61,1.77-2.88,4.04-2.88c2.26,0,4.04,1.26,4.04,2.88
			v3.53C603,106.73,601.23,107.99,598.96,107.99z M598.96,100.71c-1.24,0-2.04,0.57-2.04,0.88v3.53c0,0.3,0.79,0.88,2.04,0.88
			c1.24,0,2.04-0.58,2.04-0.88v-3.53C601,101.29,600.21,100.71,598.96,100.71z"/>
	</g>
	<g class="st24">
		<path class="st29" d="M609.36,107.99c-2.26,0-4.04-1.26-4.04-2.88v-3.53c0-1.61,1.77-2.88,4.04-2.88c2.26,0,4.04,1.26,4.04,2.88
			v3.53C613.4,106.73,611.62,107.99,609.36,107.99z M609.36,100.71c-1.24,0-2.04,0.57-2.04,0.88v3.53c0,0.3,0.79,0.88,2.04,0.88
			c1.24,0,2.04-0.58,2.04-0.88v-3.53C611.4,101.29,610.6,100.71,609.36,100.71z"/>
	</g>
	<g class="st24">
		<path class="st29" d="M619.48,107.99c-2.26,0-4.04-1.26-4.04-2.88v-3.53c0-1.61,1.77-2.88,4.04-2.88c2.26,0,4.04,1.26,4.04,2.88
			v3.53C623.52,106.73,621.74,107.99,619.48,107.99z M619.48,100.71c-1.24,0-2.04,0.57-2.04,0.88v3.53c0,0.3,0.79,0.88,2.04,0.88
			c1.24,0,2.04-0.58,2.04-0.88v-3.53C621.52,101.29,620.72,100.71,619.48,100.71z"/>
	</g>
	<g class="st24">
		<path class="st29" d="M629.86,107.99c-2.26,0-4.04-1.26-4.04-2.88v-3.53c0-1.61,1.77-2.88,4.04-2.88c2.26,0,4.04,1.26,4.04,2.88
			v3.53C633.9,106.73,632.12,107.99,629.86,107.99z M629.86,100.71c-1.24,0-2.04,0.57-2.04,0.88v3.53c0,0.3,0.79,0.88,2.04,0.88
			c1.24,0,2.04-0.58,2.04-0.88v-3.53C631.9,101.29,631.1,100.71,629.86,100.71z"/>
	</g>
	<g class="st24">
		<path class="st29" d="M639.98,107.99c-2.26,0-4.04-1.26-4.04-2.88v-3.53c0-1.61,1.77-2.88,4.04-2.88c2.26,0,4.04,1.26,4.04,2.88
			v3.53C644.02,106.73,642.24,107.99,639.98,107.99z M639.98,100.71c-1.24,0-2.04,0.57-2.04,0.88v3.53c0,0.3,0.79,0.88,2.04,0.88
			c1.24,0,2.04-0.58,2.04-0.88v-3.53C642.02,101.29,641.22,100.71,639.98,100.71z"/>
	</g>
	<g class="st24">
		<path class="st29" d="M648.99,107.99c-2.26,0-4.04-1.26-4.04-2.88v-3.53c0-1.61,1.77-2.88,4.04-2.88c2.26,0,4.04,1.26,4.04,2.88
			v3.53C653.02,106.73,651.25,107.99,648.99,107.99z M648.99,100.71c-1.24,0-2.04,0.57-2.04,0.88v3.53c0,0.3,0.79,0.88,2.04,0.88
			c1.24,0,2.04-0.58,2.04-0.88v-3.53C651.02,101.29,650.23,100.71,648.99,100.71z"/>
	</g>
	<g class="st24">
		<rect x="483.98" y="78.08" class="st29" width="73.74" height="10.59"/>
	</g>
	<g class="st24">
		<rect x="483.98" y="204.2" class="st29" width="73.74" height="10.59"/>
	</g>
	<g class="st24">
		<rect x="496.33" y="95.87" class="st29" width="2" height="102"/>
	</g>
	<g class="st24">
		<rect x="503.01" y="95.87" class="st29" width="2" height="102"/>
	</g>
	<g class="st24">
		<rect x="510.5" y="95.87" class="st29" width="2" height="102"/>
	</g>
	<g class="st24">
		<rect x="517.83" y="95.87" class="st29" width="2" height="102"/>
	</g>
	<g class="st24">
		<rect x="524.51" y="95.87" class="st29" width="2" height="102"/>
	</g>
	<g class="st24">
		<rect x="532" y="95.87" class="st29" width="2" height="102"/>
	</g>
	<g class="st24">
		<rect x="539.08" y="95.87" class="st29" width="2" height="102"/>
	</g>
	<g class="st24">
		<rect x="545.76" y="95.87" class="st29" width="2" height="102"/>
	</g>
</g>
<g class="st23">
	<g class="st24">
		<rect x="74.99" y="267.54" class="st25" width="41.58" height="5.33"/>
	</g>
	<g class="st24">
		<path class="st25" d="M129.22,290.87H61.93v-8.67h67.29V290.87z M63.93,288.87h63.29v-4.67H63.93V288.87z"/>
	</g>
	<g class="st24">
		<path class="st25" d="M129.22,399.54H61.93v-8.67h67.29V399.54z M63.93,397.54h63.29v-4.67H63.93V397.54z"/>
	</g>
	<g class="st24">
		<rect x="62.93" y="289.87" class="st30" width="65.29" height="102"/>
		<path class="st25" d="M129.22,392.87H61.93v-104h67.29V392.87z M63.93,390.87h63.29v-100H63.93V390.87z"/>
	</g>
	<g class="st24">
		<rect x="128.03" y="289.87" class="st25" width="7.33" height="102"/>
		<path class="st25" d="M136.37,392.87h-9.33v-104h9.33V392.87z M129.03,390.87h5.33v-100h-5.33V390.87z"/>
	</g>
	<g class="st24">
		<path class="st25" d="M135.37,289.87v66.44v34.9h21.93v-16.65c0.04-0.31,0.07-0.63,0.07-0.97c0-14.86,12.12-26.9,27.07-26.9h0
			h15.7c14.23,0,25.89-10.92,26.98-24.78l0.09-32.04H135.37z M143.53,386.37c0,1.17-0.95,2.12-2.12,2.12s-2.12-0.95-2.12-2.12v-4
			c0-1.17,0.95-2.12,2.12-2.12s2.12,0.95,2.12,2.12V386.37z M143.53,298.87c0,1.17-0.95,2.12-2.12,2.12s-2.12-0.95-2.12-2.12v-4
			c0-1.17,0.95-2.12,2.12-2.12s2.12,0.95,2.12,2.12V298.87z M151.78,386.37c0,1.17-0.95,2.12-2.12,2.12s-2.12-0.95-2.12-2.12v-4
			c0-1.17,0.95-2.12,2.12-2.12s2.12,0.95,2.12,2.12V386.37z M151.78,298.87c0,1.17-0.95,2.12-2.12,2.12s-2.12-0.95-2.12-2.12v-4
			c0-1.17,0.95-2.12,2.12-2.12s2.12,0.95,2.12,2.12V298.87z M159.78,298.87c0,1.17-0.95,2.12-2.12,2.12s-2.12-0.95-2.12-2.12v-4
			c0-1.17,0.95-2.12,2.12-2.12s2.12,0.95,2.12,2.12V298.87z M168.03,298.87c0,1.17-0.95,2.12-2.12,2.12s-2.12-0.95-2.12-2.12v-4
			c0-1.17,0.95-2.12,2.12-2.12s2.12,0.95,2.12,2.12V298.87z M175.28,298.87c0,1.17-0.95,2.12-2.12,2.12s-2.12-0.95-2.12-2.12v-4
			c0-1.17,0.95-2.12,2.12-2.12s2.12,0.95,2.12,2.12V298.87z M183.53,298.87c0,1.17-0.95,2.12-2.12,2.12s-2.12-0.95-2.12-2.12v-4
			c0-1.17,0.95-2.12,2.12-2.12s2.12,0.95,2.12,2.12V298.87z M191.53,298.87c0,1.17-0.95,2.12-2.12,2.12s-2.12-0.95-2.12-2.12v-4
			c0-1.17,0.95-2.12,2.12-2.12s2.12,0.95,2.12,2.12V298.87z M199.78,298.87c0,1.17-0.95,2.12-2.12,2.12s-2.12-0.95-2.12-2.12v-4
			c0-1.17,0.95-2.12,2.12-2.12s2.12,0.95,2.12,2.12V298.87z M207.28,298.87c0,1.17-0.95,2.12-2.12,2.12s-2.12-0.95-2.12-2.12v-4
			c0-1.17,0.95-2.12,2.12-2.12s2.12,0.95,2.12,2.12V298.87z M215.53,298.87c0,1.17-0.95,2.12-2.12,2.12s-2.12-0.95-2.12-2.12v-4
			c0-1.17,0.95-2.12,2.12-2.12s2.12,0.95,2.12,2.12V298.87z M223.53,298.87c0,1.17-0.95,2.12-2.12,2.12s-2.12-0.95-2.12-2.12v-4
			c0-1.17,0.95-2.12,2.12-2.12s2.12,0.95,2.12,2.12V298.87z"/>
		<path class="st25" d="M157.3,391.71h-21.93c-0.28,0-0.5-0.22-0.5-0.5V289.87c0-0.28,0.22-0.5,0.5-0.5h91.85
			c0.13,0,0.26,0.05,0.35,0.15c0.09,0.1,0.15,0.22,0.15,0.36l-0.09,32.04c-1.11,14.19-13.19,25.28-27.48,25.28h-15.7
			c-14.65,0-26.58,11.84-26.58,26.4c0,0.34-0.03,0.68-0.08,1.04l0.01,16.58C157.8,391.48,157.57,391.71,157.3,391.71z
			 M135.87,390.71h20.93v-16.15c0.05-0.39,0.07-0.68,0.07-0.97c0-15.11,12.37-27.4,27.57-27.4h15.7c13.78,0,25.41-10.68,26.48-24.32
			l0.09-31.5h-90.85V390.71z M149.66,388.99c-1.45,0-2.62-1.18-2.62-2.62v-4c0-1.45,1.18-2.62,2.62-2.62c1.45,0,2.62,1.18,2.62,2.62
			v4C152.28,387.82,151.11,388.99,149.66,388.99z M149.66,380.74c-0.9,0-1.62,0.73-1.62,1.62v4c0,0.9,0.73,1.62,1.62,1.62
			s1.62-0.73,1.62-1.62v-4C151.28,381.47,150.56,380.74,149.66,380.74z M141.41,388.99c-1.45,0-2.62-1.18-2.62-2.62v-4
			c0-1.45,1.18-2.62,2.62-2.62c1.45,0,2.62,1.18,2.62,2.62v4C144.03,387.82,142.86,388.99,141.41,388.99z M141.41,380.74
			c-0.9,0-1.62,0.73-1.62,1.62v4c0,0.9,0.73,1.62,1.62,1.62s1.62-0.73,1.62-1.62v-4C143.03,381.47,142.31,380.74,141.41,380.74z
			 M221.41,301.49c-1.45,0-2.62-1.18-2.62-2.62v-4c0-1.45,1.18-2.62,2.62-2.62c1.45,0,2.62,1.18,2.62,2.62v4
			C224.03,300.32,222.86,301.49,221.41,301.49z M221.41,293.24c-0.9,0-1.62,0.73-1.62,1.62v4c0,0.9,0.73,1.62,1.62,1.62
			s1.62-0.73,1.62-1.62v-4C223.03,293.97,222.31,293.24,221.41,293.24z M213.41,301.49c-1.45,0-2.62-1.18-2.62-2.62v-4
			c0-1.45,1.18-2.62,2.62-2.62c1.45,0,2.62,1.18,2.62,2.62v4C216.03,300.32,214.86,301.49,213.41,301.49z M213.41,293.24
			c-0.9,0-1.62,0.73-1.62,1.62v4c0,0.9,0.73,1.62,1.62,1.62s1.62-0.73,1.62-1.62v-4C215.03,293.97,214.31,293.24,213.41,293.24z
			 M205.16,301.49c-1.45,0-2.62-1.18-2.62-2.62v-4c0-1.45,1.18-2.62,2.62-2.62c1.45,0,2.62,1.18,2.62,2.62v4
			C207.78,300.32,206.61,301.49,205.16,301.49z M205.16,293.24c-0.9,0-1.62,0.73-1.62,1.62v4c0,0.9,0.73,1.62,1.62,1.62
			s1.62-0.73,1.62-1.62v-4C206.78,293.97,206.06,293.24,205.16,293.24z M197.66,301.49c-1.45,0-2.62-1.18-2.62-2.62v-4
			c0-1.45,1.18-2.62,2.62-2.62c1.45,0,2.62,1.18,2.62,2.62v4C200.28,300.32,199.11,301.49,197.66,301.49z M197.66,293.24
			c-0.9,0-1.62,0.73-1.62,1.62v4c0,0.9,0.73,1.62,1.62,1.62s1.62-0.73,1.62-1.62v-4C199.28,293.97,198.56,293.24,197.66,293.24z
			 M189.41,301.49c-1.45,0-2.62-1.18-2.62-2.62v-4c0-1.45,1.18-2.62,2.62-2.62c1.45,0,2.62,1.18,2.62,2.62v4
			C192.03,300.32,190.86,301.49,189.41,301.49z M189.41,293.24c-0.9,0-1.62,0.73-1.62,1.62v4c0,0.9,0.73,1.62,1.62,1.62
			s1.62-0.73,1.62-1.62v-4C191.03,293.97,190.31,293.24,189.41,293.24z M181.41,301.49c-1.45,0-2.62-1.18-2.62-2.62v-4
			c0-1.45,1.18-2.62,2.62-2.62c1.45,0,2.62,1.18,2.62,2.62v4C184.03,300.32,182.86,301.49,181.41,301.49z M181.41,293.24
			c-0.9,0-1.62,0.73-1.62,1.62v4c0,0.9,0.73,1.62,1.62,1.62s1.62-0.73,1.62-1.62v-4C183.03,293.97,182.31,293.24,181.41,293.24z
			 M173.16,301.49c-1.45,0-2.62-1.18-2.62-2.62v-4c0-1.45,1.18-2.62,2.62-2.62c1.45,0,2.62,1.18,2.62,2.62v4
			C175.78,300.32,174.61,301.49,173.16,301.49z M173.16,293.24c-0.9,0-1.62,0.73-1.62,1.62v4c0,0.9,0.73,1.62,1.62,1.62
			s1.62-0.73,1.62-1.62v-4C174.78,293.97,174.06,293.24,173.16,293.24z M165.91,301.49c-1.45,0-2.62-1.18-2.62-2.62v-4
			c0-1.45,1.18-2.62,2.62-2.62c1.45,0,2.62,1.18,2.62,2.62v4C168.53,300.32,167.36,301.49,165.91,301.49z M165.91,293.24
			c-0.9,0-1.62,0.73-1.62,1.62v4c0,0.9,0.73,1.62,1.62,1.62s1.62-0.73,1.62-1.62v-4C167.53,293.97,166.81,293.24,165.91,293.24z
			 M157.66,301.49c-1.45,0-2.62-1.18-2.62-2.62v-4c0-1.45,1.18-2.62,2.62-2.62c1.45,0,2.62,1.18,2.62,2.62v4
			C160.28,300.32,159.11,301.49,157.66,301.49z M157.66,293.24c-0.9,0-1.62,0.73-1.62,1.62v4c0,0.9,0.73,1.62,1.62,1.62
			s1.62-0.73,1.62-1.62v-4C159.28,293.97,158.56,293.24,157.66,293.24z M149.66,301.49c-1.45,0-2.62-1.18-2.62-2.62v-4
			c0-1.45,1.18-2.62,2.62-2.62c1.45,0,2.62,1.18,2.62,2.62v4C152.28,300.32,151.11,301.49,149.66,301.49z M149.66,293.24
			c-0.9,0-1.62,0.73-1.62,1.62v4c0,0.9,0.73,1.62,1.62,1.62s1.62-0.73,1.62-1.62v-4C151.28,293.97,150.56,293.24,149.66,293.24z
			 M141.41,301.49c-1.45,0-2.62-1.18-2.62-2.62v-4c0-1.45,1.18-2.62,2.62-2.62c1.45,0,2.62,1.18,2.62,2.62v4
			C144.03,300.32,142.86,301.49,141.41,301.49z M141.41,293.24c-0.9,0-1.62,0.73-1.62,1.62v4c0,0.9,0.73,1.62,1.62,1.62
			s1.62-0.73,1.62-1.62v-4C143.03,293.97,142.31,293.24,141.41,293.24z"/>
	</g>
	<g class="st24">
		<rect x="57.96" y="272.08" class="st25" width="73.74" height="10.59"/>
	</g>
	<g class="st24">
		<rect x="57.96" y="398.2" class="st25" width="73.74" height="10.59"/>
	</g>
	<g class="st24">
		<path class="st25" d="M73.17,327.38c-1.7,0-3.53-1.3-3.53-4.16c0-1.26,0.41-2.33,0.76-2.86c0.16-0.24,0.46-0.34,0.73-0.25
			l1.02,0.36c0.18,0.06,0.32,0.21,0.38,0.38c0.06,0.18,0.04,0.38-0.06,0.54c-0.21,0.32-0.51,1.07-0.51,1.82
			c0,0.56,0.14,0.98,0.41,1.25c0.3,0.3,0.68,0.32,0.83,0.32c1.23-0.01,1.33-1.45,1.33-1.88v-0.73c0-0.35,0.28-0.62,0.62-0.62h0.98
			c0.34,0,0.62,0.28,0.62,0.62v0.73c0,0.6,0.28,1.54,1.02,1.54c0.56,0,0.84-0.36,0.84-1.08c0-0.62-0.28-1.24-0.53-1.58
			c-0.11-0.16-0.14-0.36-0.09-0.55c0.06-0.19,0.2-0.33,0.38-0.4l0.96-0.34c0.26-0.09,0.55,0,0.71,0.22c0.4,0.54,0.87,1.63,0.87,2.91
			c0,2.33-1.52,3.4-2.94,3.4c-0.89,0-1.65-0.36-2.21-1.03C75.19,326.84,74.25,327.38,73.17,327.38z M76.6,332.75
			c0.41-0.68,0.62-1.58,0.61-2.47l1.19,0.18v3.17c0,0.34,0.28,0.62,0.62,0.62h1.11c0.34,0,0.62-0.28,0.62-0.62v-4.64
			c0-0.31-0.23-0.58-0.54-0.62l-4.66-0.63c-0.19-0.03-0.38,0.07-0.52,0.21c-0.14,0.14-0.2,0.36-0.17,0.55
			c0.04,0.32,0.09,0.71,0.09,1.2c0,1.43-0.52,2.16-1.53,2.17c-1.02,0-1.48-0.87-1.48-1.68c0-0.79,0.28-1.47,0.45-1.76
			c0.1-0.16,0.11-0.36,0.05-0.54c-0.07-0.18-0.21-0.31-0.39-0.37l-1-0.33c-0.27-0.09-0.56,0.02-0.72,0.25
			c-0.34,0.52-0.7,1.52-0.7,2.76c0,2.41,1.69,4.23,3.94,4.23C74.89,334.44,75.99,333.82,76.6,332.75z M78.43,345.88
			c0-0.78-0.2-1.4-0.63-1.97c-0.1-0.13-0.22-0.26-0.34-0.39c0.62-0.52,0.97-1.27,0.97-2.12c0-0.69-0.18-1.29-0.53-1.81
			c0.22-0.1,0.37-0.32,0.37-0.57v-1.15c0-0.17-0.07-0.34-0.2-0.46c-0.13-0.12-0.3-0.18-0.47-0.17c-0.58,0.04-1.18,0.06-1.91,0.06
			h-5.27c-0.34,0-0.62,0.28-0.62,0.62v1.29c0,0.34,0.28,0.62,0.62,0.62h4.36c0.16,0,0.31,0.02,0.45,0.08
			c0.42,0.13,0.88,0.52,0.88,1.03c0,0.77-0.85,0.88-1.36,0.88h-4.33c-0.34,0-0.62,0.28-0.62,0.62v1.29c0,0.34,0.28,0.62,0.62,0.62
			h4.46c0.15,0,0.32,0.03,0.45,0.07c0.39,0.13,0.78,0.48,0.78,0.96c0,0.26,0,0.95-1.6,0.95h-4.09c-0.34,0-0.62,0.28-0.62,0.62v1.28
			c0,0.35,0.28,0.62,0.62,0.62h4.25C77.45,348.88,78.43,347.27,78.43,345.88z M78.43,357.77c0-0.78-0.2-1.4-0.63-1.97
			c-0.1-0.13-0.22-0.26-0.34-0.38c0.62-0.52,0.97-1.27,0.97-2.12c0-0.68-0.18-1.29-0.53-1.8c0.22-0.1,0.37-0.32,0.37-0.57v-1.15
			c0-0.17-0.07-0.34-0.2-0.46c-0.13-0.12-0.3-0.18-0.47-0.16c-0.58,0.04-1.18,0.06-1.91,0.06h-5.27c-0.34,0-0.62,0.28-0.62,0.62
			v1.28c0,0.34,0.28,0.62,0.62,0.62h4.36c0.16,0,0.31,0.02,0.45,0.07c0.42,0.13,0.88,0.52,0.88,1.03c0,0.77-0.85,0.89-1.36,0.89
			h-4.33c-0.34,0-0.62,0.28-0.62,0.62v1.28c0,0.34,0.28,0.62,0.62,0.62h4.46c0.15,0,0.32,0.03,0.45,0.07
			c0.39,0.13,0.78,0.49,0.78,0.96c0,0.26,0,0.95-1.6,0.95h-4.09c-0.34,0-0.62,0.28-0.62,0.62v1.28c0,0.34,0.28,0.62,0.62,0.62h4.25
			C77.45,360.77,78.43,359.15,78.43,357.77z"/>
	</g>
	<g class="st24">
		<path class="st25" d="M119.92,345.71h-13.8c-0.49,0-0.89-0.4-0.89-0.88v-1.81c0-0.49,0.4-0.88,0.89-0.88h10.6L116.1,341
			c-0.13-0.24-0.14-0.53-0.03-0.78c0.11-0.25,0.33-0.43,0.59-0.5l1.42-0.36c0.39-0.1,0.81,0.08,1,0.44l1.61,3.02
			c0.07,0.13,0.11,0.27,0.11,0.42v1.59C120.8,345.31,120.41,345.71,119.92,345.71z M113.16,369.21c-5.19,0-8.17-2.07-8.17-5.68
			c0-1.95,1.18-4.01,4.24-4.94c-2.72-0.82-4.24-2.59-4.24-5.15c0-2.6,2.09-5.4,7.97-5.45c4.91,0,8.07,2.23,8.07,5.68
			c0,2.46-1.55,4.2-4.26,4.98c2.66,0.86,4.26,2.67,4.26,5.11C121.04,367.17,118.09,369.21,113.16,369.21z M113.08,365.57
			c1.43,0,4.74-0.19,4.74-1.92c0-1.16-1.96-1.94-4.87-1.94c-2.88,0-4.74,0.75-4.74,1.92C108.21,365.38,111.62,365.57,113.08,365.57z
			 M113.08,355.47c1.43,0,4.74-0.19,4.74-1.92c0-1.16-1.96-1.94-4.87-1.94c-2.88,0-4.74,0.75-4.74,1.92
			C108.21,355.29,111.62,355.47,113.08,355.47z"/>
	</g>
	<g class="st24">
		<rect x="87.69" y="289.87" class="st25" width="2" height="102"/>
	</g>
	<g class="st24">
		<rect x="91.69" y="289.87" class="st25" width="2" height="102"/>
	</g>
	<g class="st24">
		<rect x="95.69" y="289.87" class="st25" width="2" height="102"/>
	</g>
	<g class="st24">
		<rect x="99.69" y="289.87" class="st25" width="2" height="102"/>
	</g>
</g>
<g class="st23">
	<g class="st24">
		<path class="st31" d="M350.18,289.87v66.87v35.13h21.93v-16.76c0.05-0.31,0.07-0.63,0.07-0.98c0-14.96,12.12-27.08,27.07-27.08h0
			h17.7c14.23,0,25.89-10.98,26.98-24.94l0.09-32.25H350.18z M359.17,387.13c0,1.04-1.36,1.88-3.04,1.88
			c-1.68,0-3.04-0.84-3.04-1.88v-3.53c0-1.04,1.36-1.88,3.04-1.88c1.68,0,3.04,0.84,3.04,1.88V387.13z M360.17,299.12
			c0,1.04-1.36,1.88-3.04,1.88c-1.68,0-3.04-0.84-3.04-1.88v-3.53c0-1.04,1.36-1.88,3.04-1.88c1.68,0,3.04,0.84,3.04,1.88V299.12z
			 M369.29,387.13c0,1.04-1.36,1.88-3.04,1.88c-1.68,0-3.04-0.84-3.04-1.88v-3.53c0-1.04,1.36-1.88,3.04-1.88
			c1.68,0,3.04,0.84,3.04,1.88V387.13z M370.29,299.12c0,1.04-1.36,1.88-3.04,1.88c-1.68,0-3.04-0.84-3.04-1.88v-3.53
			c0-1.04,1.36-1.88,3.04-1.88c1.68,0,3.04,0.84,3.04,1.88V299.12z M380.67,299.12c0,1.04-1.36,1.88-3.04,1.88
			c-1.68,0-3.04-0.84-3.04-1.88v-3.53c0-1.04,1.36-1.88,3.04-1.88c1.68,0,3.04,0.84,3.04,1.88V299.12z M390.79,299.12
			c0,1.04-1.36,1.88-3.04,1.88c-1.68,0-3.04-0.84-3.04-1.88v-3.53c0-1.04,1.36-1.88,3.04-1.88c1.68,0,3.04,0.84,3.04,1.88V299.12z
			 M401.18,299.12c0,1.04-1.36,1.88-3.04,1.88c-1.68,0-3.04-0.84-3.04-1.88v-3.53c0-1.04,1.36-1.88,3.04-1.88
			c1.68,0,3.04,0.84,3.04,1.88V299.12z M411.3,299.12c0,1.04-1.36,1.88-3.04,1.88c-1.68,0-3.04-0.84-3.04-1.88v-3.53
			c0-1.04,1.36-1.88,3.04-1.88c1.68,0,3.04,0.84,3.04,1.88V299.12z M421.68,299.12c0,1.04-1.36,1.88-3.04,1.88
			c-1.68,0-3.04-0.84-3.04-1.88v-3.53c0-1.04,1.36-1.88,3.04-1.88c1.68,0,3.04,0.84,3.04,1.88V299.12z M431.8,299.12
			c0,1.04-1.36,1.88-3.04,1.88c-1.68,0-3.04-0.84-3.04-1.88v-3.53c0-1.04,1.36-1.88,3.04-1.88c1.68,0,3.04,0.84,3.04,1.88V299.12z
			 M440.81,299.12c0,1.04-1.36,1.88-3.04,1.88s-3.04-0.84-3.04-1.88v-3.53c0-1.04,1.36-1.88,3.04-1.88s3.04,0.84,3.04,1.88V299.12z"
			/>
	</g>
	<g class="st24">
		<rect x="290.62" y="268.54" class="st29" width="41.58" height="5.33"/>
	</g>
	<g class="st24">
		<rect x="278.56" y="283.2" class="st29" width="65.29" height="6.67"/>
	</g>
	<g class="st24">
		<rect x="278.56" y="391.87" class="st29" width="65.29" height="6.67"/>
	</g>
	<g class="st24">
		<rect x="278.56" y="289.87" class="st31" width="65.29" height="102"/>
	</g>
	<g class="st24">
		<rect x="343.67" y="289.87" class="st29" width="7.33" height="102"/>
	</g>
	<g class="st24">
		<rect x="273.59" y="273.08" class="st29" width="73.74" height="10.59"/>
	</g>
	<g class="st24">
		<rect x="273.59" y="398.2" class="st29" width="73.74" height="10.59"/>
	</g>
	<g class="st24">
		<rect x="281.25" y="298.12" class="st28" width="54.78" height="84.25"/>
	</g>
	<g class="st24">
		<path class="st29" d="M289.8,327.38c-1.7,0-3.53-1.3-3.53-4.16c0-1.26,0.41-2.33,0.76-2.86c0.16-0.24,0.46-0.34,0.73-0.25
			l1.02,0.36c0.18,0.06,0.32,0.21,0.38,0.38c0.06,0.18,0.04,0.38-0.06,0.54c-0.21,0.32-0.51,1.07-0.51,1.82
			c0,0.56,0.14,0.98,0.41,1.25c0.3,0.3,0.68,0.32,0.84,0.32c1.23-0.01,1.33-1.45,1.33-1.88v-0.73c0-0.35,0.28-0.62,0.62-0.62h0.98
			c0.34,0,0.62,0.28,0.62,0.62v0.73c0,0.6,0.28,1.54,1.02,1.54c0.56,0,0.84-0.36,0.84-1.08c0-0.62-0.28-1.24-0.53-1.58
			c-0.11-0.16-0.14-0.36-0.09-0.55c0.06-0.19,0.2-0.33,0.38-0.4l0.96-0.34c0.26-0.09,0.55,0,0.71,0.22c0.4,0.54,0.87,1.63,0.87,2.91
			c0,2.33-1.52,3.4-2.94,3.4c-0.89,0-1.65-0.36-2.21-1.03C291.83,326.84,290.89,327.38,289.8,327.38z M293.23,332.75
			c0.41-0.68,0.62-1.58,0.61-2.47l1.19,0.18v3.17c0,0.34,0.28,0.62,0.62,0.62h1.11c0.34,0,0.62-0.28,0.62-0.62v-4.64
			c0-0.31-0.23-0.58-0.54-0.62l-4.66-0.63c-0.19-0.03-0.38,0.07-0.52,0.21c-0.14,0.14-0.2,0.36-0.17,0.55
			c0.04,0.32,0.09,0.71,0.09,1.2c0,1.43-0.52,2.16-1.53,2.17c-1.02,0-1.48-0.87-1.48-1.68c0-0.79,0.28-1.47,0.45-1.76
			c0.1-0.16,0.11-0.36,0.05-0.54c-0.07-0.18-0.21-0.31-0.39-0.37l-1-0.33c-0.27-0.09-0.56,0.02-0.72,0.25
			c-0.34,0.52-0.7,1.52-0.7,2.76c0,2.41,1.69,4.23,3.94,4.23C291.52,334.44,292.62,333.82,293.23,332.75z M295.07,345.88
			c0-0.78-0.2-1.4-0.63-1.97c-0.1-0.13-0.22-0.26-0.34-0.39c0.62-0.52,0.97-1.27,0.97-2.12c0-0.69-0.18-1.29-0.53-1.81
			c0.22-0.1,0.37-0.32,0.37-0.57v-1.15c0-0.17-0.07-0.34-0.2-0.46c-0.13-0.12-0.3-0.18-0.47-0.17c-0.58,0.04-1.18,0.06-1.91,0.06
			h-5.27c-0.34,0-0.62,0.28-0.62,0.62v1.29c0,0.34,0.28,0.62,0.62,0.62h4.36c0.16,0,0.31,0.02,0.45,0.08
			c0.42,0.13,0.88,0.52,0.88,1.03c0,0.77-0.85,0.88-1.36,0.88h-4.33c-0.34,0-0.62,0.28-0.62,0.62v1.29c0,0.34,0.28,0.62,0.62,0.62
			h4.46c0.15,0,0.32,0.03,0.45,0.07c0.39,0.13,0.78,0.48,0.78,0.96c0,0.26,0,0.95-1.6,0.95h-4.09c-0.34,0-0.62,0.28-0.62,0.62v1.28
			c0,0.35,0.28,0.62,0.62,0.62h4.25C294.08,348.88,295.07,347.27,295.07,345.88z M295.07,357.77c0-0.78-0.2-1.4-0.63-1.97
			c-0.1-0.13-0.22-0.26-0.34-0.38c0.62-0.52,0.97-1.27,0.97-2.12c0-0.68-0.18-1.29-0.53-1.8c0.22-0.1,0.37-0.32,0.37-0.57v-1.15
			c0-0.17-0.07-0.34-0.2-0.46c-0.13-0.12-0.3-0.18-0.47-0.16c-0.58,0.04-1.18,0.06-1.91,0.06h-5.27c-0.34,0-0.62,0.28-0.62,0.62
			v1.28c0,0.34,0.28,0.62,0.62,0.62h4.36c0.16,0,0.31,0.02,0.45,0.07c0.42,0.13,0.88,0.52,0.88,1.03c0,0.77-0.85,0.89-1.36,0.89
			h-4.33c-0.34,0-0.62,0.28-0.62,0.62v1.28c0,0.34,0.28,0.62,0.62,0.62h4.46c0.15,0,0.32,0.03,0.45,0.07
			c0.39,0.13,0.78,0.49,0.78,0.96c0,0.26,0,0.95-1.6,0.95h-4.09c-0.34,0-0.62,0.28-0.62,0.62v1.28c0,0.34,0.28,0.62,0.62,0.62h4.25
			C294.08,360.77,295.07,359.15,295.07,357.77z"/>
	</g>
	<g class="st24">
		<path class="st29" d="M329.4,331.77h-13.8c-0.49,0-0.89-0.39-0.89-0.88v-1.8c0-0.49,0.4-0.88,0.89-0.88h10.6l-0.61-1.14
			c-0.13-0.24-0.14-0.53-0.03-0.78c0.11-0.25,0.33-0.44,0.59-0.5l1.42-0.36c0.39-0.1,0.81,0.08,1,0.44l1.61,3.02
			c0.07,0.13,0.11,0.27,0.11,0.42v1.59C330.28,331.38,329.89,331.77,329.4,331.77z M322.64,355.27c-5.19,0-8.17-2.07-8.17-5.69
			c0-1.95,1.18-4.01,4.24-4.94c-2.72-0.82-4.24-2.59-4.24-5.15c0-2.6,2.09-5.4,7.97-5.45c4.91,0,8.07,2.23,8.07,5.68
			c0,2.47-1.55,4.2-4.26,4.98c2.66,0.86,4.26,2.67,4.26,5.11C330.52,353.23,327.57,355.27,322.64,355.27z M322.56,351.63
			c1.43,0,4.74-0.19,4.74-1.92c0-1.16-1.96-1.94-4.87-1.94c-2.88,0-4.74,0.75-4.74,1.92C317.69,351.44,321.1,351.63,322.56,351.63z
			 M322.56,341.54c1.43,0,4.74-0.19,4.74-1.92c0-1.16-1.96-1.94-4.87-1.94c-2.88,0-4.74,0.75-4.74,1.92
			C317.69,341.35,321.1,341.54,322.56,341.54z"/>
	</g>
	<g class="st24">
		<rect x="303.62" y="298.12" class="st26" width="8.43" height="84.25"/>
	</g>
</g>
<g class="st23">
	<g class="st24">
		<path class="st29" d="M560.91,289.87v66.87v35.13h21.93v-16.76c0.04-0.31,0.07-0.63,0.07-0.98c0-14.96,12.12-27.08,27.07-27.08h0
			h17.7c14.23,0,25.89-10.98,26.98-24.94l0.09-32.25H560.91z M569.9,387.13c0,1.04-1.36,1.88-3.04,1.88c-1.68,0-3.04-0.84-3.04-1.88
			v-3.53c0-1.04,1.36-1.88,3.04-1.88c1.68,0,3.04,0.84,3.04,1.88V387.13z M570.9,299.12c0,1.04-1.36,1.88-3.04,1.88
			c-1.68,0-3.04-0.84-3.04-1.88v-3.53c0-1.04,1.36-1.88,3.04-1.88c1.68,0,3.04,0.84,3.04,1.88V299.12z M580.02,387.13
			c0,1.04-1.36,1.88-3.04,1.88c-1.68,0-3.04-0.84-3.04-1.88v-3.53c0-1.04,1.36-1.88,3.04-1.88c1.68,0,3.04,0.84,3.04,1.88V387.13z
			 M581.02,299.12c0,1.04-1.36,1.88-3.04,1.88c-1.68,0-3.04-0.84-3.04-1.88v-3.53c0-1.04,1.36-1.88,3.04-1.88
			c1.68,0,3.04,0.84,3.04,1.88V299.12z M591.4,299.12c0,1.04-1.36,1.88-3.04,1.88c-1.68,0-3.04-0.84-3.04-1.88v-3.53
			c0-1.04,1.36-1.88,3.04-1.88c1.68,0,3.04,0.84,3.04,1.88V299.12z M601.52,299.12c0,1.04-1.36,1.88-3.04,1.88
			c-1.68,0-3.04-0.84-3.04-1.88v-3.53c0-1.04,1.36-1.88,3.04-1.88c1.68,0,3.04,0.84,3.04,1.88V299.12z M611.92,299.12
			c0,1.04-1.36,1.88-3.04,1.88c-1.68,0-3.04-0.84-3.04-1.88v-3.53c0-1.04,1.36-1.88,3.04-1.88c1.68,0,3.04,0.84,3.04,1.88V299.12z
			 M622.04,299.12c0,1.04-1.36,1.88-3.04,1.88c-1.68,0-3.04-0.84-3.04-1.88v-3.53c0-1.04,1.36-1.88,3.04-1.88
			c1.68,0,3.04,0.84,3.04,1.88V299.12z M632.42,299.12c0,1.04-1.36,1.88-3.04,1.88c-1.68,0-3.04-0.84-3.04-1.88v-3.53
			c0-1.04,1.36-1.88,3.04-1.88c1.68,0,3.04,0.84,3.04,1.88V299.12z M642.54,299.12c0,1.04-1.36,1.88-3.04,1.88
			c-1.68,0-3.04-0.84-3.04-1.88v-3.53c0-1.04,1.36-1.88,3.04-1.88c1.68,0,3.04,0.84,3.04,1.88V299.12z M651.54,299.12
			c0,1.04-1.36,1.88-3.04,1.88c-1.68,0-3.04-0.84-3.04-1.88v-3.53c0-1.04,1.36-1.88,3.04-1.88c1.68,0,3.04,0.84,3.04,1.88V299.12z"
			/>
	</g>
	<g class="st24">
		<rect x="501.36" y="268.54" class="st29" width="41.58" height="5.33"/>
	</g>
	<g class="st24">
		<rect x="489.3" y="283.2" class="st29" width="65.29" height="6.67"/>
	</g>
	<g class="st24">
		<rect x="489.3" y="391.87" class="st29" width="65.29" height="6.67"/>
	</g>
	<g class="st24">
		<rect x="489.3" y="289.87" class="st30" width="65.29" height="102"/>
	</g>
	<g class="st24">
		<rect x="554.4" y="289.87" class="st29" width="7.33" height="102"/>
	</g>
	<g class="st24">
		<rect x="484.33" y="273.08" class="st29" width="73.74" height="10.59"/>
	</g>
	<g class="st24">
		<rect x="484.33" y="398.2" class="st29" width="73.74" height="10.59"/>
	</g>
	<g class="st24">
		<path class="st29" d="M500.54,327.38c-1.7,0-3.53-1.3-3.53-4.16c0-1.26,0.41-2.33,0.76-2.86c0.16-0.24,0.46-0.34,0.73-0.25
			l1.02,0.36c0.18,0.06,0.32,0.21,0.38,0.38c0.06,0.18,0.04,0.38-0.06,0.54c-0.21,0.32-0.51,1.07-0.51,1.82
			c0,0.56,0.14,0.98,0.41,1.25c0.3,0.3,0.68,0.32,0.83,0.32c1.23-0.01,1.33-1.45,1.33-1.88v-0.73c0-0.35,0.28-0.62,0.62-0.62h0.98
			c0.34,0,0.62,0.28,0.62,0.62v0.73c0,0.6,0.28,1.54,1.02,1.54c0.56,0,0.84-0.36,0.84-1.08c0-0.62-0.28-1.24-0.53-1.58
			c-0.11-0.16-0.14-0.36-0.09-0.55c0.06-0.19,0.2-0.33,0.38-0.4l0.96-0.34c0.26-0.09,0.55,0,0.71,0.22c0.4,0.54,0.87,1.63,0.87,2.91
			c0,2.33-1.52,3.4-2.94,3.4c-0.89,0-1.65-0.36-2.21-1.03C502.56,326.84,501.62,327.38,500.54,327.38z M503.96,332.75
			c0.41-0.68,0.62-1.58,0.61-2.47l1.19,0.18v3.17c0,0.34,0.28,0.62,0.62,0.62h1.1c0.34,0,0.62-0.28,0.62-0.62v-4.64
			c0-0.31-0.23-0.58-0.54-0.62l-4.66-0.63c-0.19-0.03-0.38,0.07-0.52,0.21c-0.14,0.14-0.2,0.36-0.17,0.55
			c0.04,0.32,0.09,0.71,0.09,1.2c0,1.43-0.52,2.16-1.53,2.17c-1.02,0-1.48-0.87-1.48-1.68c0-0.79,0.28-1.47,0.45-1.76
			c0.1-0.16,0.11-0.36,0.05-0.54c-0.07-0.18-0.21-0.31-0.39-0.37l-1-0.33c-0.27-0.09-0.56,0.02-0.72,0.25
			c-0.34,0.52-0.7,1.52-0.7,2.76c0,2.41,1.69,4.23,3.94,4.23C502.25,334.44,503.36,333.82,503.96,332.75z M505.8,345.88
			c0-0.78-0.2-1.4-0.63-1.97c-0.1-0.13-0.22-0.26-0.34-0.39c0.62-0.52,0.97-1.27,0.97-2.12c0-0.69-0.18-1.29-0.53-1.81
			c0.22-0.1,0.37-0.32,0.37-0.57v-1.15c0-0.17-0.07-0.34-0.2-0.46c-0.13-0.12-0.3-0.18-0.47-0.17c-0.58,0.04-1.18,0.06-1.91,0.06
			h-5.27c-0.34,0-0.62,0.28-0.62,0.62v1.29c0,0.34,0.28,0.62,0.62,0.62h4.36c0.16,0,0.31,0.02,0.45,0.08
			c0.42,0.13,0.88,0.52,0.88,1.03c0,0.77-0.85,0.88-1.36,0.88h-4.33c-0.34,0-0.62,0.28-0.62,0.62v1.29c0,0.34,0.28,0.62,0.62,0.62
			h4.46c0.15,0,0.32,0.03,0.45,0.07c0.39,0.13,0.78,0.48,0.78,0.96c0,0.26,0,0.95-1.6,0.95h-4.09c-0.34,0-0.62,0.28-0.62,0.62v1.28
			c0,0.35,0.28,0.62,0.62,0.62h4.25C504.81,348.88,505.8,347.27,505.8,345.88z M505.8,357.77c0-0.78-0.2-1.4-0.63-1.97
			c-0.1-0.13-0.22-0.26-0.34-0.38c0.62-0.52,0.97-1.27,0.97-2.12c0-0.68-0.18-1.29-0.53-1.8c0.22-0.1,0.37-0.32,0.37-0.57v-1.15
			c0-0.17-0.07-0.34-0.2-0.46c-0.13-0.12-0.3-0.18-0.47-0.16c-0.58,0.04-1.18,0.06-1.91,0.06h-5.27c-0.34,0-0.62,0.28-0.62,0.62
			v1.28c0,0.34,0.28,0.62,0.62,0.62h4.36c0.16,0,0.31,0.02,0.45,0.07c0.42,0.13,0.88,0.52,0.88,1.03c0,0.77-0.85,0.89-1.36,0.89
			h-4.33c-0.34,0-0.62,0.28-0.62,0.62v1.28c0,0.34,0.28,0.62,0.62,0.62h4.46c0.15,0,0.32,0.03,0.45,0.07
			c0.39,0.13,0.78,0.49,0.78,0.96c0,0.26,0,0.95-1.6,0.95h-4.09c-0.34,0-0.62,0.28-0.62,0.62v1.28c0,0.34,0.28,0.62,0.62,0.62h4.25
			C504.81,360.77,505.8,359.15,505.8,357.77z"/>
	</g>
	<g class="st24">
		<rect x="514.36" y="289.87" class="st26" width="8.43" height="102"/>
	</g>
	<g class="st24">
		<rect x="531.04" y="289.87" class="st29" width="2" height="8.12"/>
	</g>
	<g class="st24">
		<rect x="538.13" y="289.87" class="st29" width="2" height="8.12"/>
	</g>
	<g class="st24">
		<rect x="544.81" y="289.87" class="st29" width="2" height="8.12"/>
	</g>
	<g class="st24">
		<rect x="531.04" y="320.99" class="st29" width="2" height="72.12"/>
	</g>
	<g class="st24">
		<rect x="538.13" y="320.99" class="st29" width="2" height="72.12"/>
	</g>
	<g class="st24">
		<rect x="544.81" y="320.99" class="st29" width="2" height="72.12"/>
	</g>
	<g class="st24">
		<path class="st29" d="M544.5,306.56c0-1.78-1.17-3.02-2.85-3.02c-0.31,0-0.6,0.04-0.88,0.13c0.41-0.53,1.01-0.88,1.75-1.01
			c0.2-0.03,0.39-0.05,0.55-0.05l0.67,0.04v-1.89h-0.5c-0.21,0-0.5,0.01-0.83,0.06c-1.1,0.13-2.06,0.58-2.79,1.29
			c-0.92,0.92-1.44,2.26-1.46,3.77c-0.2-0.4-0.49-0.75-0.87-1c0.54-0.45,0.83-1.06,0.83-1.78c0-1.17-0.84-2.36-2.73-2.36
			c-1.03,0-1.9,0.38-2.34,0.7l-0.3,0.22l0.62,1.74l0.54-0.38c0.27-0.2,0.77-0.42,1.27-0.42c0.58,0,0.87,0.23,0.87,0.68
			c0,0.6-0.76,0.82-1.24,0.82h-1.09v1.79h1.09c0.35,0,1.5,0.08,1.51,1.07c0,0.12-0.02,0.43-0.25,0.67
			c-0.22,0.22-0.55,0.33-1.01,0.33c-0.59,0-1.2-0.25-1.46-0.41l-0.53-0.34l-0.63,1.78l0.33,0.21c0.43,0.28,1.29,0.61,2.3,0.61
			c2.02,0,3.07-1.14,3.29-2.34c0.44,1.44,1.55,2.34,3.04,2.34C543.42,309.8,544.5,308.13,544.5,306.56z M540.26,306.02
			c0.21-0.41,0.64-0.69,1.07-0.69c0.7,0,1.11,0.47,1.11,1.29c0,0.63-0.27,1.37-1.02,1.37c-1.1,0-1.21-1.33-1.21-1.73
			C540.2,306.17,540.21,306.1,540.26,306.02z M533.22,311.9c-1.69,0-2.72,1.38-2.72,3.13c0,1.75,1.07,2.93,2.85,2.93
			c0.92,0,1.56-0.19,1.93-0.36l-0.18-0.75c-0.4,0.17-0.85,0.3-1.61,0.3c-1.06,0-1.97-0.59-1.99-2.02h4.08
			c0.01-0.11,0.04-0.28,0.04-0.49C535.62,313.57,535.12,311.9,533.22,311.9z M531.52,314.38c0.08-0.73,0.55-1.72,1.62-1.72
			c1.19,0,1.47,1.04,1.46,1.72H531.52z M538.94,314.84l2.04,3h-1.2l-0.85-1.31c-0.23-0.34-0.42-0.66-0.62-1.01h-0.02
			c-0.19,0.35-0.4,0.66-0.61,1.01l-0.84,1.31h-1.16l2.06-2.96l-1.97-2.84h1.18l0.83,1.25c0.22,0.32,0.4,0.62,0.59,0.95h0.04
			c0.19-0.35,0.38-0.65,0.58-0.96l0.82-1.24h1.14L538.94,314.84z M544.58,311.9c-0.95,0-1.63,0.42-2.06,1.13h-0.02l-0.05-1h-0.95
			c0.02,0.55,0.05,1.15,0.05,1.89v6.29h1.04v-3.15h0.02c0.35,0.58,1.02,0.91,1.79,0.91c1.37,0,2.64-1.03,2.64-3.12
			C547.03,313.09,545.98,311.9,544.58,311.9z M544.22,317.14c-0.75,0-1.39-0.5-1.58-1.23c-0.02-0.13-0.05-0.28-0.05-0.43v-1
			c0-0.14,0.04-0.3,0.07-0.43c0.2-0.79,0.88-1.31,1.59-1.31c1.12,0,1.73,1,1.73,2.16C545.98,316.23,545.33,317.14,544.22,317.14z
			 M548.8,317.22c0,0.43-0.28,0.76-0.72,0.76c-0.42,0-0.71-0.32-0.71-0.76c0-0.44,0.3-0.76,0.72-0.76
			C548.51,316.46,548.8,316.77,548.8,317.22z"/>
	</g>
</g>
</svg>
