<?xml version="1.0" encoding="utf-8"?>
<!-- Generator: Adobe Illustrator 16.0.0, SVG Export Plug-In . SVG Version: 6.00 Build 0)  -->
<!DOCTYPE svg PUBLIC "-//W3C//DTD SVG 1.1//EN" "http://www.w3.org/Graphics/SVG/1.1/DTD/svg11.dtd">
<svg version="1.1" id="Layer_1" xmlns="http://www.w3.org/2000/svg" xmlns:xlink="http://www.w3.org/1999/xlink" x="0px" y="0px"
	 width="700px" height="490px" viewBox="0 0 700 490" enable-background="new 0 0 700 490" xml:space="preserve">
<g>
	<g>
		<g>
			<path fill="#303E5C" d="M362.4,454.9c0.3,0,0.7,0.3,0.7,0.3l-5.7,11.8c-0.6,0-2.1,0.1-2.5,0.1c-0.3,0-0.7-0.3-0.7-0.3l-1.9-11.8
				c1.2,0,2.7-0.1,3.1-0.1c0.3,0,0.7,0.3,0.7,0.3l0.6,5.8c0.1,0.5,0.1,1.2,0,1.9c0.2-0.8,0.4-1.5,0.6-2.1l2.4-5.8
				C360.7,455,362,454.9,362.4,454.9L362.4,454.9z"/>
		</g>
		<g>
			<path fill="#303E5C" d="M368.3,460.7c0,1.3-0.7,2.1-2.6,2.5l-1.9,0.4c0.2,0.8,0.7,1.2,1.5,1.2c1.1,0,1.8-0.8,1.8-0.8
				s0.5,0.3,0.5,0.9c0,1.1-1.7,2.2-3.7,2.2c-2,0-3.3-1.2-3.3-3.3c0-2.4,1.7-5.6,4.8-5.6C367.2,458.2,368.3,459.2,368.3,460.7
				L368.3,460.7z M365,461.9c0.4-0.1,0.5-0.5,0.5-0.8c0-0.4-0.1-0.9-0.5-0.9c-0.8,0-1.1,1.2-1.2,2.1L365,461.9z"/>
		</g>
		<g>
			<path fill="#303E5C" d="M373.5,458.2c1.6,0,2.7,0.8,2.7,1.9c0,1.3-1.6,1.8-1.6,1.8s-0.5-1.4-1.6-1.4c-0.7,0-1.2,0.7-1.2,2.3
				c0,1.4,0.4,2.1,1.3,2.1c1,0,1.6-0.6,1.6-0.6s0.5,0.3,0.5,0.9c0,1-1.6,2.1-3.5,2.1c-2,0-3.3-1.2-3.3-3.3
				C368.5,461.5,370.3,458.2,373.5,458.2L373.5,458.2z"/>
		</g>
		<g>
			<path fill="#303E5C" d="M381,456.3c0.4,0,0.6,0.3,0.6,0.3l-0.3,1.8h2l-0.4,1.4c-0.1,0.4-0.4,0.7-0.8,0.7h-1l-0.6,3.5
				c-0.1,0.6,0,0.8,0.4,0.8c0.4,0,0.7-0.2,0.7-0.2s0.5,0.3,0.5,0.9c0,0.9-1.3,1.7-2.9,1.7c-1.7,0-2.4-1-2.1-2.8l0.6-3.9h-1.1
				l0.5-1.4c0.1-0.4,0.4-0.6,0.8-0.6h0.5l0.6-1.7C379.9,456.6,380.6,456.3,381,456.3L381,456.3z"/>
		</g>
		<g>
			<path fill="#303E5C" d="M390.5,460.7c0,1.3-0.7,2.1-2.6,2.5l-1.9,0.4c0.2,0.8,0.7,1.2,1.5,1.2c1.1,0,1.8-0.8,1.8-0.8
				s0.5,0.3,0.5,0.9c0,1.1-1.7,2.2-3.7,2.2c-2,0-3.3-1.2-3.3-3.3c0-2.4,1.7-5.6,4.8-5.6C389.5,458.2,390.5,459.2,390.5,460.7
				L390.5,460.7z M387.3,461.9c0.4-0.1,0.5-0.5,0.5-0.8c0-0.4-0.1-0.9-0.5-0.9c-0.8,0-1.1,1.2-1.2,2.1L387.3,461.9z"/>
		</g>
		<g>
			<path fill="#303E5C" d="M398.4,460.7c0,1.3-0.7,2.1-2.6,2.5l-1.9,0.4c0.1,0.8,0.7,1.2,1.5,1.2c1.1,0,1.8-0.8,1.8-0.8
				s0.5,0.3,0.5,0.9c0,1.1-1.7,2.2-3.7,2.2c-2,0-3.3-1.2-3.3-3.3c0-2.4,1.7-5.6,4.8-5.6C397.3,458.2,398.4,459.2,398.4,460.7
				L398.4,460.7z M395.1,461.9c0.4-0.1,0.5-0.5,0.5-0.8c0-0.4-0.1-0.9-0.5-0.9c-0.8,0-1.1,1.2-1.2,2.1L395.1,461.9z"/>
		</g>
		<g>
			<path fill="#303E5C" d="M404.8,463.9c0,0,0.7,0.6,0.7,1.6c0,1.3-1.1,1.7-2.1,1.7c-1.3,0-2.2-0.6-3.1-0.9
				c-0.3,0.3-0.5,0.6-0.8,0.9c0,0-1.4,0-1.4-1c0-1.1,2-3.1,4.1-5.3c-0.2,0-0.5-0.1-0.7-0.1c-1.2,0-1.7,0.6-1.7,0.6s-0.6-0.7-0.6-1.6
				c0.1-1.2,1.3-1.6,2.2-1.6c1,0,1.8,0.4,2.5,0.7l0.6-0.7c0,0,1.4,0,1.4,1c0,1.1-1.9,3-3.9,5.2c0.4,0.1,0.8,0.2,1.2,0.2
				C404.3,464.6,404.8,463.9,404.8,463.9L404.8,463.9z"/>
		</g>
		<g>
			<path fill="#303E5C" d="M414,466.4c-0.5,3-2.6,4.5-5.3,4.5c-1.7,0-3-0.9-3-1.9c0-0.7,0.6-1,0.6-1s0.6,0.5,1.7,0.5
				c1.1,0,2.5-0.4,2.8-2l0.2-1.2c-0.7,1-1.7,1.8-2.9,1.8c-1.4,0-2-1.1-1.6-3.3l0.4-2.4c0.2-1.5,0.3-2.6,0.3-2.6
				c1-0.2,2.2-0.6,2.7-0.6c0.3,0,0.7,0.3,0.7,0.3l-0.5,3l-0.4,2.8c0,0.3,0,0.4,0.2,0.4c1.1,0,1.8-3.1,1.8-3.1
				c0.2-1.5,0.3-2.6,0.3-2.6c1-0.2,2.2-0.6,2.7-0.6c0.3,0,0.7,0.3,0.7,0.3l-0.5,3L414,466.4z"/>
		</g>
	</g>
	<g>
		<path fill="#303E5C" d="M283.2,458.7h3c0.7,0,1.2,0.1,1.6,0.2c0.5,0.1,0.9,0.4,1.2,0.7c0.3,0.4,0.6,0.8,0.8,1.3
			c0.2,0.5,0.3,1.1,0.3,1.9c0,0.7-0.1,1.2-0.3,1.7c-0.2,0.6-0.5,1.1-0.9,1.4c-0.3,0.3-0.7,0.5-1.2,0.6c-0.4,0.1-0.9,0.2-1.5,0.2
			h-3.1V458.7z M284.9,460.1v5.3h1.2c0.5,0,0.8,0,1-0.1c0.3-0.1,0.5-0.2,0.7-0.3c0.2-0.2,0.3-0.4,0.4-0.8c0.1-0.4,0.2-0.8,0.2-1.5
			s-0.1-1.1-0.2-1.4c-0.1-0.3-0.3-0.6-0.5-0.8c-0.2-0.2-0.5-0.3-0.8-0.4c-0.2-0.1-0.7-0.1-1.4-0.1H284.9z"/>
		<path fill="#303E5C" d="M294.7,464.9l1.6,0.3c-0.2,0.6-0.5,1-1,1.3c-0.4,0.3-1,0.4-1.6,0.4c-1,0-1.8-0.3-2.3-1
			c-0.4-0.5-0.6-1.2-0.6-2c0-1,0.3-1.7,0.8-2.3s1.2-0.8,2-0.8c0.9,0,1.6,0.3,2.1,0.9c0.5,0.6,0.8,1.4,0.7,2.6h-4
			c0,0.5,0.1,0.8,0.4,1.1c0.2,0.3,0.5,0.4,0.9,0.4c0.2,0,0.5-0.1,0.6-0.2C294.5,465.4,294.7,465.2,294.7,464.9z M294.8,463.3
			c0-0.4-0.1-0.8-0.4-1s-0.5-0.3-0.8-0.3c-0.3,0-0.6,0.1-0.9,0.4s-0.3,0.6-0.3,1H294.8z"/>
		<path fill="#303E5C" d="M296.9,465.1l1.6-0.2c0.1,0.3,0.2,0.5,0.4,0.7c0.2,0.2,0.5,0.2,0.9,0.2c0.4,0,0.7-0.1,0.9-0.2
			c0.1-0.1,0.2-0.2,0.2-0.4c0-0.1,0-0.2-0.1-0.3c-0.1-0.1-0.3-0.1-0.5-0.2c-1.3-0.3-2.1-0.5-2.4-0.7c-0.5-0.3-0.7-0.7-0.7-1.3
			c0-0.5,0.2-0.9,0.6-1.3c0.4-0.3,1-0.5,1.9-0.5c0.8,0,1.4,0.1,1.8,0.4c0.4,0.3,0.7,0.6,0.8,1.1l-1.5,0.3c-0.1-0.2-0.2-0.4-0.4-0.5
			c-0.2-0.1-0.4-0.2-0.8-0.2c-0.4,0-0.7,0.1-0.9,0.2c-0.1,0.1-0.2,0.2-0.2,0.3c0,0.1,0.1,0.2,0.2,0.3c0.1,0.1,0.6,0.2,1.5,0.4
			c0.8,0.2,1.4,0.4,1.8,0.7c0.3,0.3,0.5,0.7,0.5,1.1c0,0.5-0.2,1-0.7,1.4c-0.5,0.4-1.1,0.6-2,0.6c-0.8,0-1.5-0.2-1.9-0.5
			C297.4,466,297.1,465.6,296.9,465.1z"/>
		<path fill="#303E5C" d="M303.6,460.1v-1.4h1.6v1.4H303.6z M303.6,466.7v-5.8h1.6v5.8H303.6z"/>
		<path fill="#303E5C" d="M306.4,467.1l1.8,0.2c0,0.2,0.1,0.3,0.2,0.4c0.2,0.1,0.4,0.2,0.7,0.2c0.4,0,0.7-0.1,0.9-0.2
			c0.1-0.1,0.2-0.2,0.3-0.4c0-0.1,0.1-0.4,0.1-0.7v-0.8c-0.5,0.6-1.1,0.9-1.8,0.9c-0.8,0-1.4-0.3-1.9-1c-0.4-0.5-0.5-1.2-0.5-1.9
			c0-1,0.2-1.7,0.7-2.2c0.5-0.5,1.1-0.8,1.8-0.8c0.7,0,1.3,0.3,1.8,0.9v-0.8h1.5v5.2c0,0.7-0.1,1.2-0.2,1.5
			c-0.1,0.3-0.3,0.6-0.5,0.8c-0.2,0.2-0.5,0.3-0.8,0.5s-0.8,0.2-1.3,0.2c-1,0-1.7-0.2-2.2-0.5c-0.4-0.3-0.6-0.8-0.6-1.3
			C306.4,467.2,306.4,467.2,306.4,467.1z M307.9,463.7c0,0.6,0.1,1.1,0.4,1.4c0.2,0.3,0.5,0.4,0.9,0.4c0.4,0,0.7-0.1,1-0.4
			c0.3-0.3,0.4-0.7,0.4-1.3c0-0.6-0.1-1-0.4-1.3c-0.3-0.3-0.6-0.4-1-0.4c-0.4,0-0.7,0.1-0.9,0.4C308,462.7,307.9,463.1,307.9,463.7z
			"/>
		<path fill="#303E5C" d="M318.8,466.7h-1.6v-3c0-0.6,0-1-0.1-1.2c-0.1-0.2-0.2-0.3-0.3-0.4c-0.1-0.1-0.3-0.2-0.5-0.2
			c-0.3,0-0.5,0.1-0.7,0.2c-0.2,0.1-0.4,0.3-0.4,0.6c-0.1,0.2-0.1,0.7-0.1,1.3v2.6h-1.6v-5.8h1.5v0.9c0.5-0.7,1.2-1,2-1
			c0.3,0,0.7,0.1,1,0.2c0.3,0.1,0.5,0.3,0.7,0.5c0.1,0.2,0.3,0.4,0.3,0.6c0.1,0.2,0.1,0.6,0.1,1V466.7z"/>
		<path fill="#303E5C" d="M323.6,464.9l1.6,0.3c-0.2,0.6-0.5,1-1,1.3c-0.4,0.3-1,0.4-1.6,0.4c-1,0-1.8-0.3-2.3-1
			c-0.4-0.5-0.6-1.2-0.6-2c0-1,0.3-1.7,0.8-2.3c0.5-0.5,1.2-0.8,2-0.8c0.9,0,1.6,0.3,2.1,0.9c0.5,0.6,0.8,1.4,0.7,2.6h-4
			c0,0.5,0.1,0.8,0.4,1.1c0.2,0.3,0.5,0.4,0.9,0.4c0.2,0,0.5-0.1,0.6-0.2S323.5,465.2,323.6,464.9z M323.7,463.3
			c0-0.4-0.1-0.8-0.4-1c-0.2-0.2-0.5-0.3-0.8-0.3c-0.3,0-0.6,0.1-0.9,0.4s-0.3,0.6-0.3,1H323.7z"/>
		<path fill="#303E5C" d="M331.8,466.7h-1.5v-0.9c-0.2,0.3-0.5,0.6-0.9,0.7c-0.3,0.2-0.7,0.2-1,0.2c-0.7,0-1.3-0.3-1.8-0.8
			c-0.5-0.5-0.7-1.3-0.7-2.2c0-1,0.2-1.7,0.7-2.2c0.5-0.5,1.1-0.8,1.8-0.8c0.7,0,1.2,0.3,1.7,0.8v-2.9h1.6V466.7z M327.6,463.7
			c0,0.6,0.1,1.1,0.3,1.3c0.3,0.4,0.6,0.6,1.1,0.6c0.4,0,0.7-0.2,0.9-0.4c0.3-0.3,0.4-0.7,0.4-1.3c0-0.7-0.1-1.1-0.4-1.4
			c-0.2-0.3-0.6-0.4-0.9-0.4c-0.4,0-0.7,0.1-0.9,0.4C327.7,462.7,327.6,463.1,327.6,463.7z"/>
		<path fill="#303E5C" d="M336,466.7v-8h1.6v2.9c0.5-0.5,1.1-0.8,1.7-0.8c0.7,0,1.3,0.3,1.8,0.8c0.5,0.5,0.7,1.2,0.7,2.2
			c0,1-0.2,1.8-0.7,2.3c-0.5,0.5-1.1,0.8-1.8,0.8c-0.3,0-0.7-0.1-1-0.2c-0.3-0.2-0.6-0.4-0.9-0.7v0.9H336z M337.6,463.7
			c0,0.6,0.1,1,0.3,1.3c0.3,0.4,0.6,0.6,1.1,0.6c0.3,0,0.6-0.1,0.9-0.4s0.4-0.7,0.4-1.4c0-0.7-0.1-1.1-0.4-1.4
			c-0.2-0.3-0.6-0.4-0.9-0.4c-0.4,0-0.7,0.1-0.9,0.4S337.6,463.1,337.6,463.7z"/>
		<path fill="#303E5C" d="M348,460.4c-0.4,0-0.7,0.2-0.9,0.5h-0.5l-1.4,4.1l-1.4-4.1h-1.7l2.3,5.8c-0.1,0.3-0.2,0.6-0.4,0.8
			c-0.2,0.2-0.4,0.3-0.8,0.3c-0.2,0-0.4,0-0.7-0.1l0.1,1.2c0.3,0.1,0.6,0.1,0.9,0.1c0.3,0,0.6,0,0.8-0.1c0.2-0.1,0.4-0.1,0.6-0.3
			s0.3-0.3,0.4-0.4c0.1-0.2,0.3-0.4,0.4-0.8l0.4-1l1.5-4c0.1,0,0.2,0.1,0.3,0.1C349.4,462.6,349.4,460.4,348,460.4z"/>
	</g>
</g>
<g>
	<g>
		<path fill="#303E5C" d="M142.6,83.2c0,3.3-4.3,6-9.6,6H68.2c-5.3,0-9.6-2.7-9.6-6l0,0c0-3.3,4.3-6,9.6-6H133
			C138.3,77.2,142.6,79.9,142.6,83.2L142.6,83.2z"/>
	</g>
	<g>
		<rect x="80.2" y="70.5" fill="#303E5C" width="41.6" height="5.3"/>
	</g>
	<g>
		<rect x="80.2" y="217.5" fill="#303E5C" width="41.6" height="5.3"/>
	</g>
	<g>
		<rect x="68.2" y="89.2" fill="#303E5C" width="65.3" height="6.7"/>
	</g>
	<g>
		<path fill="#303E5C" d="M142.6,210.5c0-3.3-4.3-6-9.6-6H68.2c-5.3,0-9.6,2.7-9.6,6l0,0c0,3.3,4.3,6,9.6,6H133
			C138.3,216.5,142.6,213.8,142.6,210.5L142.6,210.5z"/>
	</g>
	<g>
		<rect x="68.2" y="197.9" fill="#303E5C" width="65.3" height="6.7"/>
	</g>
	<g>
		<path fill="#303E5C" d="M134.4,198.9H67.2v-104h67.3V198.9z M69.2,196.9h63.3v-100H69.2V196.9z"/>
	</g>
	<g>
		<rect x="133.3" y="95.9" fill="#303E5C" width="7.3" height="102"/>
		<path fill="#303E5C" d="M141.6,198.9h-9.3v-104h9.3V198.9z M134.3,196.9h5.3v-100h-5.3V196.9z"/>
	</g>
	<g>
		<path fill="#303E5C" d="M162.5,198.9h-21.9c-0.6,0-1-0.4-1-1v-102c0-0.6,0.4-1,1-1h91.9c0.3,0,0.5,0.1,0.7,0.3s0.3,0.4,0.3,0.7
			l-0.1,32.2c-1.1,14.6-13.4,25.9-28,25.9h-15.7c-14.4,0-26.1,11.7-26.1,26.1c0,0.3,0,0.7-0.1,1v16.7
			C163.5,198.4,163.1,198.9,162.5,198.9z M141.6,196.9h19.9v-15.8c0,0,0-0.1,0-0.1c0-0.3,0.1-0.6,0.1-0.8
			c0-15.5,12.6-28.1,28.1-28.1h15.7c13.5,0,24.9-10.5,26-24l0.1-31.2h-89.9V196.9z"/>
	</g>
	<g>
		<path fill="#303E5C" d="M146.6,195.5c-1.7,0-3.1-1.4-3.1-3.1v-4c0-1.7,1.4-3.1,3.1-3.1s3.1,1.4,3.1,3.1v4
			C149.8,194.1,148.4,195.5,146.6,195.5z M146.6,187.2c-0.6,0-1.1,0.5-1.1,1.1v4c0,0.6,0.5,1.1,1.1,1.1s1.1-0.5,1.1-1.1v-4
			C147.8,187.7,147.3,187.2,146.6,187.2z"/>
	</g>
	<g>
		<path fill="#303E5C" d="M154.9,195.5c-1.7,0-3.1-1.4-3.1-3.1v-4c0-1.7,1.4-3.1,3.1-3.1s3.1,1.4,3.1,3.1v4
			C158,194.1,156.6,195.5,154.9,195.5z M154.9,187.2c-0.6,0-1.1,0.5-1.1,1.1v4c0,0.6,0.5,1.1,1.1,1.1s1.1-0.5,1.1-1.1v-4
			C156,187.7,155.5,187.2,154.9,187.2z"/>
	</g>
	<g>
		<path fill="#303E5C" d="M146.6,108c-1.7,0-3.1-1.4-3.1-3.1v-4c0-1.7,1.4-3.1,3.1-3.1s3.1,1.4,3.1,3.1v4
			C149.8,106.6,148.4,108,146.6,108z M146.6,99.7c-0.6,0-1.1,0.5-1.1,1.1v4c0,0.6,0.5,1.1,1.1,1.1s1.1-0.5,1.1-1.1v-4
			C147.8,100.2,147.3,99.7,146.6,99.7z"/>
	</g>
	<g>
		<path fill="#303E5C" d="M154.9,108c-1.7,0-3.1-1.4-3.1-3.1v-4c0-1.7,1.4-3.1,3.1-3.1s3.1,1.4,3.1,3.1v4
			C158,106.6,156.6,108,154.9,108z M154.9,99.7c-0.6,0-1.1,0.5-1.1,1.1v4c0,0.6,0.5,1.1,1.1,1.1s1.1-0.5,1.1-1.1v-4
			C156,100.2,155.5,99.7,154.9,99.7z"/>
	</g>
	<g>
		<path fill="#303E5C" d="M162.9,108c-1.7,0-3.1-1.4-3.1-3.1v-4c0-1.7,1.4-3.1,3.1-3.1s3.1,1.4,3.1,3.1v4
			C166,106.6,164.6,108,162.9,108z M162.9,99.7c-0.6,0-1.1,0.5-1.1,1.1v4c0,0.6,0.5,1.1,1.1,1.1s1.1-0.5,1.1-1.1v-4
			C164,100.2,163.5,99.7,162.9,99.7z"/>
	</g>
	<g>
		<path fill="#303E5C" d="M171.1,108c-1.7,0-3.1-1.4-3.1-3.1v-4c0-1.7,1.4-3.1,3.1-3.1s3.1,1.4,3.1,3.1v4
			C174.3,106.6,172.9,108,171.1,108z M171.1,99.7c-0.6,0-1.1,0.5-1.1,1.1v4c0,0.6,0.5,1.1,1.1,1.1s1.1-0.5,1.1-1.1v-4
			C172.3,100.2,171.8,99.7,171.1,99.7z"/>
	</g>
	<g>
		<path fill="#303E5C" d="M178.4,108c-1.7,0-3.1-1.4-3.1-3.1v-4c0-1.7,1.4-3.1,3.1-3.1s3.1,1.4,3.1,3.1v4
			C181.5,106.6,180.1,108,178.4,108z M178.4,99.7c-0.6,0-1.1,0.5-1.1,1.1v4c0,0.6,0.5,1.1,1.1,1.1s1.1-0.5,1.1-1.1v-4
			C179.5,100.2,179,99.7,178.4,99.7z"/>
	</g>
	<g>
		<path fill="#303E5C" d="M186.6,108c-1.7,0-3.1-1.4-3.1-3.1v-4c0-1.7,1.4-3.1,3.1-3.1s3.1,1.4,3.1,3.1v4
			C189.8,106.6,188.4,108,186.6,108z M186.6,99.7c-0.6,0-1.1,0.5-1.1,1.1v4c0,0.6,0.5,1.1,1.1,1.1s1.1-0.5,1.1-1.1v-4
			C187.8,100.2,187.3,99.7,186.6,99.7z"/>
	</g>
	<g>
		<path fill="#303E5C" d="M194.6,108c-1.7,0-3.1-1.4-3.1-3.1v-4c0-1.7,1.4-3.1,3.1-3.1s3.1,1.4,3.1,3.1v4
			C197.8,106.6,196.4,108,194.6,108z M194.6,99.7c-0.6,0-1.1,0.5-1.1,1.1v4c0,0.6,0.5,1.1,1.1,1.1s1.1-0.5,1.1-1.1v-4
			C195.8,100.2,195.3,99.7,194.6,99.7z"/>
	</g>
	<g>
		<path fill="#303E5C" d="M202.9,108c-1.7,0-3.1-1.4-3.1-3.1v-4c0-1.7,1.4-3.1,3.1-3.1s3.1,1.4,3.1,3.1v4
			C206,106.6,204.6,108,202.9,108z M202.9,99.7c-0.6,0-1.1,0.5-1.1,1.1v4c0,0.6,0.5,1.1,1.1,1.1s1.1-0.5,1.1-1.1v-4
			C204,100.2,203.5,99.7,202.9,99.7z"/>
	</g>
	<g>
		<path fill="#303E5C" d="M210.4,108c-1.7,0-3.1-1.4-3.1-3.1v-4c0-1.7,1.4-3.1,3.1-3.1s3.1,1.4,3.1,3.1v4
			C213.5,106.6,212.1,108,210.4,108z M210.4,99.7c-0.6,0-1.1,0.5-1.1,1.1v4c0,0.6,0.5,1.1,1.1,1.1s1.1-0.5,1.1-1.1v-4
			C211.5,100.2,211,99.7,210.4,99.7z"/>
	</g>
	<g>
		<path fill="#303E5C" d="M218.6,108c-1.7,0-3.1-1.4-3.1-3.1v-4c0-1.7,1.4-3.1,3.1-3.1s3.1,1.4,3.1,3.1v4
			C221.8,106.6,220.4,108,218.6,108z M218.6,99.7c-0.6,0-1.1,0.5-1.1,1.1v4c0,0.6,0.5,1.1,1.1,1.1s1.1-0.5,1.1-1.1v-4
			C219.8,100.2,219.3,99.7,218.6,99.7z"/>
	</g>
	<g>
		<path fill="#303E5C" d="M226.6,108c-1.7,0-3.1-1.4-3.1-3.1v-4c0-1.7,1.4-3.1,3.1-3.1s3.1,1.4,3.1,3.1v4
			C229.8,106.6,228.4,108,226.6,108z M226.6,99.7c-0.6,0-1.1,0.5-1.1,1.1v4c0,0.6,0.5,1.1,1.1,1.1s1.1-0.5,1.1-1.1v-4
			C227.8,100.2,227.3,99.7,226.6,99.7z"/>
	</g>
</g>
<g>
	<g>
		<rect x="289.7" y="73.5" fill="#303E5C" width="41.6" height="5.3"/>
	</g>
	<g>
		<path fill="#303E5C" d="M343.9,96.9h-67.3v-8.7h67.3V96.9z M278.6,94.9h63.3v-4.7h-63.3V94.9z"/>
	</g>
	<g>
		<path fill="#303E5C" d="M343.9,205.5h-67.3v-8.7h67.3V205.5z M278.6,203.5h63.3v-4.7h-63.3V203.5z"/>
	</g>
	<g>
		<rect x="277.6" y="95.9" fill="#E13338" width="65.3" height="102"/>
		<path fill="#303E5C" d="M343.9,198.9h-67.3v-104h67.3V198.9z M278.6,196.9h63.3v-100h-63.3V196.9z"/>
	</g>
	<g>
		<rect x="342.7" y="95.9" fill="#303E5C" width="7.3" height="102"/>
	</g>
	<g>
		<path fill="#A89996" d="M350.1,95.9v66.9v35.1H372v-16.8c0-0.3,0.1-0.6,0.1-1c0-15,12.1-27.1,27.1-27.1h0h15.7
			c14.2,0,25.9-11,27-24.9l0.1-32.2H350.1z"/>
		<path fill="#303E5C" d="M372,198.9h-21.9c-0.6,0-1-0.4-1-1v-102c0-0.6,0.4-1,1-1h91.9c0.3,0,0.5,0.1,0.7,0.3s0.3,0.4,0.3,0.7
			l-0.1,32.2c-1.1,14.6-13.4,25.9-28,25.9h-15.7c-14.4,0-26.1,11.7-26.1,26.1c0,0.3,0,0.7-0.1,1v16.7
			C373,198.4,372.5,198.9,372,198.9z M351.1,196.9H371v-15.8c0,0,0-0.1,0-0.1c0-0.3,0.1-0.6,0.1-0.8c0-15.5,12.6-28.1,28.1-28.1
			h15.7c13.5,0,24.9-10.5,26-24l0.1-31.2h-89.9V196.9z"/>
	</g>
	<g>
		<g>
			<path fill="#FFFFFF" d="M358.2,192.4c0,1.2-1,2.1-2.1,2.1l0,0c-1.2,0-2.1-1-2.1-2.1v-4c0-1.2,1-2.1,2.1-2.1l0,0
				c1.2,0,2.1,1,2.1,2.1V192.4z"/>
			<path fill="#303E5C" d="M356.1,195.5c-1.7,0-3.1-1.4-3.1-3.1v-4c0-1.7,1.4-3.1,3.1-3.1s3.1,1.4,3.1,3.1v4
				C359.2,194.1,357.8,195.5,356.1,195.5z M356.1,187.2c-0.6,0-1.1,0.5-1.1,1.1v4c0,0.6,0.5,1.1,1.1,1.1s1.1-0.5,1.1-1.1v-4
				C357.2,187.7,356.7,187.2,356.1,187.2z"/>
		</g>
		<g>
			<path fill="#FFFFFF" d="M366.5,192.4c0,1.2-1,2.1-2.1,2.1l0,0c-1.2,0-2.1-1-2.1-2.1v-4c0-1.2,1-2.1,2.1-2.1l0,0
				c1.2,0,2.1,1,2.1,2.1V192.4z"/>
			<path fill="#303E5C" d="M364.3,195.5c-1.7,0-3.1-1.4-3.1-3.1v-4c0-1.7,1.4-3.1,3.1-3.1s3.1,1.4,3.1,3.1v4
				C367.5,194.1,366.1,195.5,364.3,195.5z M364.3,187.2c-0.6,0-1.1,0.5-1.1,1.1v4c0,0.6,0.5,1.1,1.1,1.1s1.1-0.5,1.1-1.1v-4
				C365.5,187.7,365,187.2,364.3,187.2z"/>
		</g>
		<g>
			<path fill="#FFFFFF" d="M358.2,104.9c0,1.2-1,2.1-2.1,2.1l0,0c-1.2,0-2.1-1-2.1-2.1v-4c0-1.2,1-2.1,2.1-2.1l0,0
				c1.2,0,2.1,1,2.1,2.1V104.9z"/>
			<path fill="#303E5C" d="M356.1,108c-1.7,0-3.1-1.4-3.1-3.1v-4c0-1.7,1.4-3.1,3.1-3.1s3.1,1.4,3.1,3.1v4
				C359.2,106.6,357.8,108,356.1,108z M356.1,99.7c-0.6,0-1.1,0.5-1.1,1.1v4c0,0.6,0.5,1.1,1.1,1.1s1.1-0.5,1.1-1.1v-4
				C357.2,100.2,356.7,99.7,356.1,99.7z"/>
		</g>
		<g>
			<path fill="#FFFFFF" d="M366.5,104.9c0,1.2-1,2.1-2.1,2.1l0,0c-1.2,0-2.1-1-2.1-2.1v-4c0-1.2,1-2.1,2.1-2.1l0,0
				c1.2,0,2.1,1,2.1,2.1V104.9z"/>
			<path fill="#303E5C" d="M364.3,108c-1.7,0-3.1-1.4-3.1-3.1v-4c0-1.7,1.4-3.1,3.1-3.1s3.1,1.4,3.1,3.1v4
				C367.5,106.6,366.1,108,364.3,108z M364.3,99.7c-0.6,0-1.1,0.5-1.1,1.1v4c0,0.6,0.5,1.1,1.1,1.1s1.1-0.5,1.1-1.1v-4
				C365.5,100.2,365,99.7,364.3,99.7z"/>
		</g>
		<g>
			<path fill="#FFFFFF" d="M374.5,104.9c0,1.2-1,2.1-2.1,2.1l0,0c-1.2,0-2.1-1-2.1-2.1v-4c0-1.2,1-2.1,2.1-2.1l0,0
				c1.2,0,2.1,1,2.1,2.1V104.9z"/>
			<path fill="#303E5C" d="M372.3,108c-1.7,0-3.1-1.4-3.1-3.1v-4c0-1.7,1.4-3.1,3.1-3.1s3.1,1.4,3.1,3.1v4
				C375.5,106.6,374.1,108,372.3,108z M372.3,99.7c-0.6,0-1.1,0.5-1.1,1.1v4c0,0.6,0.5,1.1,1.1,1.1s1.1-0.5,1.1-1.1v-4
				C373.5,100.2,373,99.7,372.3,99.7z"/>
		</g>
		<g>
			<path fill="#FFFFFF" d="M382.7,104.9c0,1.2-1,2.1-2.1,2.1l0,0c-1.2,0-2.1-1-2.1-2.1v-4c0-1.2,1-2.1,2.1-2.1l0,0
				c1.2,0,2.1,1,2.1,2.1V104.9z"/>
			<path fill="#303E5C" d="M380.6,108c-1.7,0-3.1-1.4-3.1-3.1v-4c0-1.7,1.4-3.1,3.1-3.1s3.1,1.4,3.1,3.1v4
				C383.7,106.6,382.3,108,380.6,108z M380.6,99.7c-0.6,0-1.1,0.5-1.1,1.1v4c0,0.6,0.5,1.1,1.1,1.1s1.1-0.5,1.1-1.1v-4
				C381.7,100.2,381.2,99.7,380.6,99.7z"/>
		</g>
		<g>
			<path fill="#FFFFFF" d="M390,104.9c0,1.2-1,2.1-2.1,2.1l0,0c-1.2,0-2.1-1-2.1-2.1v-4c0-1.2,1-2.1,2.1-2.1l0,0
				c1.2,0,2.1,1,2.1,2.1V104.9z"/>
			<path fill="#303E5C" d="M387.8,108c-1.7,0-3.1-1.4-3.1-3.1v-4c0-1.7,1.4-3.1,3.1-3.1s3.1,1.4,3.1,3.1v4
				C391,106.6,389.6,108,387.8,108z M387.8,99.7c-0.6,0-1.1,0.5-1.1,1.1v4c0,0.6,0.5,1.1,1.1,1.1s1.1-0.5,1.1-1.1v-4
				C389,100.2,388.5,99.7,387.8,99.7z"/>
		</g>
		<g>
			<path fill="#FFFFFF" d="M398.2,104.9c0,1.2-1,2.1-2.1,2.1l0,0c-1.2,0-2.1-1-2.1-2.1v-4c0-1.2,1-2.1,2.1-2.1l0,0
				c1.2,0,2.1,1,2.1,2.1V104.9z"/>
			<path fill="#303E5C" d="M396.1,108c-1.7,0-3.1-1.4-3.1-3.1v-4c0-1.7,1.4-3.1,3.1-3.1s3.1,1.4,3.1,3.1v4
				C399.2,106.6,397.8,108,396.1,108z M396.1,99.7c-0.6,0-1.1,0.5-1.1,1.1v4c0,0.6,0.5,1.1,1.1,1.1s1.1-0.5,1.1-1.1v-4
				C397.2,100.2,396.7,99.7,396.1,99.7z"/>
		</g>
		<g>
			<path fill="#FFFFFF" d="M406.2,104.9c0,1.2-1,2.1-2.1,2.1l0,0c-1.2,0-2.1-1-2.1-2.1v-4c0-1.2,1-2.1,2.1-2.1l0,0
				c1.2,0,2.1,1,2.1,2.1V104.9z"/>
			<path fill="#303E5C" d="M404.1,108c-1.7,0-3.1-1.4-3.1-3.1v-4c0-1.7,1.4-3.1,3.1-3.1s3.1,1.4,3.1,3.1v4
				C407.2,106.6,405.8,108,404.1,108z M404.1,99.7c-0.6,0-1.1,0.5-1.1,1.1v4c0,0.6,0.5,1.1,1.1,1.1s1.1-0.5,1.1-1.1v-4
				C405.2,100.2,404.7,99.7,404.1,99.7z"/>
		</g>
		<g>
			<path fill="#FFFFFF" d="M414.5,104.9c0,1.2-1,2.1-2.1,2.1l0,0c-1.2,0-2.1-1-2.1-2.1v-4c0-1.2,1-2.1,2.1-2.1l0,0
				c1.2,0,2.1,1,2.1,2.1V104.9z"/>
			<path fill="#303E5C" d="M412.3,108c-1.7,0-3.1-1.4-3.1-3.1v-4c0-1.7,1.4-3.1,3.1-3.1s3.1,1.4,3.1,3.1v4
				C415.5,106.6,414.1,108,412.3,108z M412.3,99.7c-0.6,0-1.1,0.5-1.1,1.1v4c0,0.6,0.5,1.1,1.1,1.1s1.1-0.5,1.1-1.1v-4
				C413.5,100.2,413,99.7,412.3,99.7z"/>
		</g>
		<g>
			<path fill="#FFFFFF" d="M422,104.9c0,1.2-1,2.1-2.1,2.1l0,0c-1.2,0-2.1-1-2.1-2.1v-4c0-1.2,1-2.1,2.1-2.1l0,0
				c1.2,0,2.1,1,2.1,2.1V104.9z"/>
			<path fill="#303E5C" d="M419.8,108c-1.7,0-3.1-1.4-3.1-3.1v-4c0-1.7,1.4-3.1,3.1-3.1s3.1,1.4,3.1,3.1v4
				C423,106.6,421.6,108,419.8,108z M419.8,99.7c-0.6,0-1.1,0.5-1.1,1.1v4c0,0.6,0.5,1.1,1.1,1.1s1.1-0.5,1.1-1.1v-4
				C421,100.2,420.5,99.7,419.8,99.7z"/>
		</g>
		<g>
			<path fill="#FFFFFF" d="M430.2,104.9c0,1.2-1,2.1-2.1,2.1l0,0c-1.2,0-2.1-1-2.1-2.1v-4c0-1.2,1-2.1,2.1-2.1l0,0
				c1.2,0,2.1,1,2.1,2.1V104.9z"/>
			<path fill="#303E5C" d="M428.1,108c-1.7,0-3.1-1.4-3.1-3.1v-4c0-1.7,1.4-3.1,3.1-3.1s3.1,1.4,3.1,3.1v4
				C431.2,106.6,429.8,108,428.1,108z M428.1,99.7c-0.6,0-1.1,0.5-1.1,1.1v4c0,0.6,0.5,1.1,1.1,1.1s1.1-0.5,1.1-1.1v-4
				C429.2,100.2,428.7,99.7,428.1,99.7z"/>
		</g>
		<g>
			<path fill="#FFFFFF" d="M438.2,104.9c0,1.2-1,2.1-2.1,2.1l0,0c-1.2,0-2.1-1-2.1-2.1v-4c0-1.2,1-2.1,2.1-2.1l0,0
				c1.2,0,2.1,1,2.1,2.1V104.9z"/>
			<path fill="#303E5C" d="M436.1,108c-1.7,0-3.1-1.4-3.1-3.1v-4c0-1.7,1.4-3.1,3.1-3.1s3.1,1.4,3.1,3.1v4
				C439.2,106.6,437.8,108,436.1,108z M436.1,99.7c-0.6,0-1.1,0.5-1.1,1.1v4c0,0.6,0.5,1.1,1.1,1.1s1.1-0.5,1.1-1.1v-4
				C437.2,100.2,436.7,99.7,436.1,99.7z"/>
		</g>
	</g>
	<g>
		<rect x="272.6" y="78.1" fill="#303E5C" width="73.7" height="10.6"/>
	</g>
	<g>
		<rect x="272.6" y="204.2" fill="#303E5C" width="73.7" height="10.6"/>
	</g>
</g>
<g>
	<g>
		<rect x="501" y="73.5" fill="#383838" width="41.6" height="5.3"/>
	</g>
	<g>
		<rect x="501" y="212.1" fill="#383838" width="41.6" height="5.3"/>
	</g>
	<g>
		<path fill="#383838" d="M555.2,96.9H488v-8.7h67.3V96.9z M490,94.9h63.3v-4.7H490V94.9z"/>
	</g>
	<g>
		<path fill="#383838" d="M555.2,205.5H488v-8.7h67.3V205.5z M490,203.5h63.3v-4.7H490V203.5z"/>
	</g>
	<g>
		<path fill="#383838" d="M555.2,198.9H488v-104h67.3V198.9z M490,196.9h63.3v-100H490V196.9z"/>
	</g>
	<g>
		<rect x="554.1" y="95.9" fill="#383838" width="7.3" height="102"/>
		<path fill="#383838" d="M562.4,198.9h-9.3v-104h9.3V198.9z M555.1,196.9h5.3v-100h-5.3V196.9z"/>
	</g>
	<g>
		<path fill="#383838" d="M584.3,198.9h-23.9v-104h95.9l-0.1,33.3c-1.1,14.6-13.4,25.9-28,25.9h-17.7c-14.4,0-26.1,11.7-26.1,26.1
			c0,0.3,0,0.7-0.1,1V198.9z M562.4,196.9h19.9l0-15.9c0-0.3,0.1-0.6,0.1-0.8c0-15.5,12.6-28.1,28.1-28.1h17.7
			c13.5,0,24.9-10.5,26-24l0.1-31.2h-91.9V196.9z"/>
	</g>
	<g>
		<path fill="#383838" d="M567.3,196c-2.3,0-4-1.3-4-2.9v-3.5c0-1.6,1.8-2.9,4-2.9s4,1.3,4,2.9v3.5C571.4,194.7,569.6,196,567.3,196
			z M567.3,188.7c-1.2,0-2,0.6-2,0.9v3.5c0,0.3,0.8,0.9,2,0.9c1.2,0,2-0.6,2-0.9v-3.5C569.4,189.3,568.6,188.7,567.3,188.7z"/>
	</g>
	<g>
		<path fill="#383838" d="M577.5,196c-2.3,0-4-1.3-4-2.9v-3.5c0-1.6,1.8-2.9,4-2.9s4,1.3,4,2.9v3.5C581.5,194.7,579.7,196,577.5,196
			z M577.5,188.7c-1.2,0-2,0.6-2,0.9v3.5c0,0.3,0.8,0.9,2,0.9c1.2,0,2-0.6,2-0.9v-3.5C579.5,189.3,578.7,188.7,577.5,188.7z"/>
	</g>
	<g>
		<path fill="#383838" d="M568.3,108c-2.3,0-4-1.3-4-2.9v-3.5c0-1.6,1.8-2.9,4-2.9s4,1.3,4,2.9v3.5C572.4,106.7,570.6,108,568.3,108
			z M568.3,100.7c-1.2,0-2,0.6-2,0.9v3.5c0,0.3,0.8,0.9,2,0.9c1.2,0,2-0.6,2-0.9v-3.5C570.4,101.3,569.6,100.7,568.3,100.7z"/>
	</g>
	<g>
		<path fill="#383838" d="M578.5,108c-2.3,0-4-1.3-4-2.9v-3.5c0-1.6,1.8-2.9,4-2.9s4,1.3,4,2.9v3.5C582.5,106.7,580.7,108,578.5,108
			z M578.5,100.7c-1.2,0-2,0.6-2,0.9v3.5c0,0.3,0.8,0.9,2,0.9c1.2,0,2-0.6,2-0.9v-3.5C580.5,101.3,579.7,100.7,578.5,100.7z"/>
	</g>
	<g>
		<path fill="#383838" d="M588.8,108c-2.3,0-4-1.3-4-2.9v-3.5c0-1.6,1.8-2.9,4-2.9s4,1.3,4,2.9v3.5C592.9,106.7,591.1,108,588.8,108
			z M588.8,100.7c-1.2,0-2,0.6-2,0.9v3.5c0,0.3,0.8,0.9,2,0.9c1.2,0,2-0.6,2-0.9v-3.5C590.9,101.3,590.1,100.7,588.8,100.7z"/>
	</g>
	<g>
		<path fill="#383838" d="M599,108c-2.3,0-4-1.3-4-2.9v-3.5c0-1.6,1.8-2.9,4-2.9s4,1.3,4,2.9v3.5C603,106.7,601.2,108,599,108z
			 M599,100.7c-1.2,0-2,0.6-2,0.9v3.5c0,0.3,0.8,0.9,2,0.9c1.2,0,2-0.6,2-0.9v-3.5C601,101.3,600.2,100.7,599,100.7z"/>
	</g>
	<g>
		<path fill="#383838" d="M609.4,108c-2.3,0-4-1.3-4-2.9v-3.5c0-1.6,1.8-2.9,4-2.9s4,1.3,4,2.9v3.5C613.4,106.7,611.6,108,609.4,108
			z M609.4,100.7c-1.2,0-2,0.6-2,0.9v3.5c0,0.3,0.8,0.9,2,0.9c1.2,0,2-0.6,2-0.9v-3.5C611.4,101.3,610.6,100.7,609.4,100.7z"/>
	</g>
	<g>
		<path fill="#383838" d="M619.5,108c-2.3,0-4-1.3-4-2.9v-3.5c0-1.6,1.8-2.9,4-2.9s4,1.3,4,2.9v3.5C623.5,106.7,621.7,108,619.5,108
			z M619.5,100.7c-1.2,0-2,0.6-2,0.9v3.5c0,0.3,0.8,0.9,2,0.9c1.2,0,2-0.6,2-0.9v-3.5C621.5,101.3,620.7,100.7,619.5,100.7z"/>
	</g>
	<g>
		<path fill="#383838" d="M629.9,108c-2.3,0-4-1.3-4-2.9v-3.5c0-1.6,1.8-2.9,4-2.9s4,1.3,4,2.9v3.5C633.9,106.7,632.1,108,629.9,108
			z M629.9,100.7c-1.2,0-2,0.6-2,0.9v3.5c0,0.3,0.8,0.9,2,0.9c1.2,0,2-0.6,2-0.9v-3.5C631.9,101.3,631.1,100.7,629.9,100.7z"/>
	</g>
	<g>
		<path fill="#383838" d="M640,108c-2.3,0-4-1.3-4-2.9v-3.5c0-1.6,1.8-2.9,4-2.9s4,1.3,4,2.9v3.5C644,106.7,642.2,108,640,108z
			 M640,100.7c-1.2,0-2,0.6-2,0.9v3.5c0,0.3,0.8,0.9,2,0.9c1.2,0,2-0.6,2-0.9v-3.5C642,101.3,641.2,100.7,640,100.7z"/>
	</g>
	<g>
		<path fill="#383838" d="M649,108c-2.3,0-4-1.3-4-2.9v-3.5c0-1.6,1.8-2.9,4-2.9s4,1.3,4,2.9v3.5C653,106.7,651.3,108,649,108z
			 M649,100.7c-1.2,0-2,0.6-2,0.9v3.5c0,0.3,0.8,0.9,2,0.9c1.2,0,2-0.6,2-0.9v-3.5C651,101.3,650.2,100.7,649,100.7z"/>
	</g>
	<g>
		<rect x="484" y="78.1" fill="#383838" width="73.7" height="10.6"/>
	</g>
	<g>
		<rect x="484" y="204.2" fill="#383838" width="73.7" height="10.6"/>
	</g>
	<g>
		<rect x="496.3" y="95.9" fill="#383838" width="2" height="102"/>
	</g>
	<g>
		<rect x="503" y="95.9" fill="#383838" width="2" height="102"/>
	</g>
	<g>
		<rect x="510.5" y="95.9" fill="#383838" width="2" height="102"/>
	</g>
	<g>
		<rect x="517.8" y="95.9" fill="#383838" width="2" height="102"/>
	</g>
	<g>
		<rect x="524.5" y="95.9" fill="#383838" width="2" height="102"/>
	</g>
	<g>
		<rect x="532" y="95.9" fill="#383838" width="2" height="102"/>
	</g>
	<g>
		<rect x="539.1" y="95.9" fill="#383838" width="2" height="102"/>
	</g>
	<g>
		<rect x="545.8" y="95.9" fill="#383838" width="2" height="102"/>
	</g>
</g>
<g>
	<g>
		<rect x="75" y="267.5" fill="#303E5C" width="41.6" height="5.3"/>
	</g>
	<g>
		<path fill="#303E5C" d="M129.2,290.9H61.9v-8.7h67.3V290.9z M63.9,288.9h63.3v-4.7H63.9V288.9z"/>
	</g>
	<g>
		<path fill="#303E5C" d="M129.2,399.5H61.9v-8.7h67.3V399.5z M63.9,397.5h63.3v-4.7H63.9V397.5z"/>
	</g>
	<g>
		<rect x="62.9" y="289.9" fill="#E89137" width="65.3" height="102"/>
		<path fill="#303E5C" d="M129.2,392.9H61.9v-104h67.3V392.9z M63.9,390.9h63.3v-100H63.9V390.9z"/>
	</g>
	<g>
		<rect x="128" y="289.9" fill="#303E5C" width="7.3" height="102"/>
		<path fill="#303E5C" d="M136.4,392.9H127v-104h9.3V392.9z M129,390.9h5.3v-100H129V390.9z"/>
	</g>
	<g>
		<path fill="#303E5C" d="M135.4,289.9v66.4v34.9h21.9v-16.7c0-0.3,0.1-0.6,0.1-1c0-14.9,12.1-26.9,27.1-26.9h0h15.7
			c14.2,0,25.9-10.9,27-24.8l0.1-32H135.4z M143.5,386.4c0,1.2-1,2.1-2.1,2.1s-2.1-1-2.1-2.1v-4c0-1.2,1-2.1,2.1-2.1s2.1,1,2.1,2.1
			V386.4z M143.5,298.9c0,1.2-1,2.1-2.1,2.1s-2.1-1-2.1-2.1v-4c0-1.2,1-2.1,2.1-2.1s2.1,1,2.1,2.1V298.9z M151.8,386.4
			c0,1.2-1,2.1-2.1,2.1s-2.1-1-2.1-2.1v-4c0-1.2,1-2.1,2.1-2.1s2.1,1,2.1,2.1V386.4z M151.8,298.9c0,1.2-1,2.1-2.1,2.1
			s-2.1-1-2.1-2.1v-4c0-1.2,1-2.1,2.1-2.1s2.1,1,2.1,2.1V298.9z M159.8,298.9c0,1.2-1,2.1-2.1,2.1s-2.1-1-2.1-2.1v-4
			c0-1.2,1-2.1,2.1-2.1s2.1,1,2.1,2.1V298.9z M168,298.9c0,1.2-1,2.1-2.1,2.1s-2.1-1-2.1-2.1v-4c0-1.2,1-2.1,2.1-2.1s2.1,1,2.1,2.1
			V298.9z M175.3,298.9c0,1.2-1,2.1-2.1,2.1s-2.1-1-2.1-2.1v-4c0-1.2,1-2.1,2.1-2.1s2.1,1,2.1,2.1V298.9z M183.5,298.9
			c0,1.2-1,2.1-2.1,2.1s-2.1-1-2.1-2.1v-4c0-1.2,1-2.1,2.1-2.1s2.1,1,2.1,2.1V298.9z M191.5,298.9c0,1.2-1,2.1-2.1,2.1
			s-2.1-1-2.1-2.1v-4c0-1.2,1-2.1,2.1-2.1s2.1,1,2.1,2.1V298.9z M199.8,298.9c0,1.2-1,2.1-2.1,2.1s-2.1-1-2.1-2.1v-4
			c0-1.2,1-2.1,2.1-2.1s2.1,1,2.1,2.1V298.9z M207.3,298.9c0,1.2-1,2.1-2.1,2.1s-2.1-1-2.1-2.1v-4c0-1.2,1-2.1,2.1-2.1
			s2.1,1,2.1,2.1V298.9z M215.5,298.9c0,1.2-1,2.1-2.1,2.1s-2.1-1-2.1-2.1v-4c0-1.2,1-2.1,2.1-2.1s2.1,1,2.1,2.1V298.9z
			 M223.5,298.9c0,1.2-1,2.1-2.1,2.1s-2.1-1-2.1-2.1v-4c0-1.2,1-2.1,2.1-2.1s2.1,1,2.1,2.1V298.9z"/>
		<path fill="#303E5C" d="M157.3,391.7h-21.9c-0.3,0-0.5-0.2-0.5-0.5V289.9c0-0.3,0.2-0.5,0.5-0.5h91.9c0.1,0,0.3,0.1,0.4,0.1
			c0.1,0.1,0.1,0.2,0.1,0.4l-0.1,32c-1.1,14.2-13.2,25.3-27.5,25.3h-15.7c-14.7,0-26.6,11.8-26.6,26.4c0,0.3,0,0.7-0.1,1l0,16.6
			C157.8,391.5,157.6,391.7,157.3,391.7z M135.9,390.7h20.9v-16.2c0.1-0.4,0.1-0.7,0.1-1c0-15.1,12.4-27.4,27.6-27.4h15.7
			c13.8,0,25.4-10.7,26.5-24.3l0.1-31.5h-90.9V390.7z M149.7,389c-1.4,0-2.6-1.2-2.6-2.6v-4c0-1.4,1.2-2.6,2.6-2.6s2.6,1.2,2.6,2.6
			v4C152.3,387.8,151.1,389,149.7,389z M149.7,380.7c-0.9,0-1.6,0.7-1.6,1.6v4c0,0.9,0.7,1.6,1.6,1.6s1.6-0.7,1.6-1.6v-4
			C151.3,381.5,150.6,380.7,149.7,380.7z M141.4,389c-1.4,0-2.6-1.2-2.6-2.6v-4c0-1.4,1.2-2.6,2.6-2.6s2.6,1.2,2.6,2.6v4
			C144,387.8,142.9,389,141.4,389z M141.4,380.7c-0.9,0-1.6,0.7-1.6,1.6v4c0,0.9,0.7,1.6,1.6,1.6s1.6-0.7,1.6-1.6v-4
			C143,381.5,142.3,380.7,141.4,380.7z M221.4,301.5c-1.4,0-2.6-1.2-2.6-2.6v-4c0-1.4,1.2-2.6,2.6-2.6s2.6,1.2,2.6,2.6v4
			C224,300.3,222.9,301.5,221.4,301.5z M221.4,293.2c-0.9,0-1.6,0.7-1.6,1.6v4c0,0.9,0.7,1.6,1.6,1.6s1.6-0.7,1.6-1.6v-4
			C223,294,222.3,293.2,221.4,293.2z M213.4,301.5c-1.4,0-2.6-1.2-2.6-2.6v-4c0-1.4,1.2-2.6,2.6-2.6s2.6,1.2,2.6,2.6v4
			C216,300.3,214.9,301.5,213.4,301.5z M213.4,293.2c-0.9,0-1.6,0.7-1.6,1.6v4c0,0.9,0.7,1.6,1.6,1.6s1.6-0.7,1.6-1.6v-4
			C215,294,214.3,293.2,213.4,293.2z M205.2,301.5c-1.4,0-2.6-1.2-2.6-2.6v-4c0-1.4,1.2-2.6,2.6-2.6s2.6,1.2,2.6,2.6v4
			C207.8,300.3,206.6,301.5,205.2,301.5z M205.2,293.2c-0.9,0-1.6,0.7-1.6,1.6v4c0,0.9,0.7,1.6,1.6,1.6s1.6-0.7,1.6-1.6v-4
			C206.8,294,206.1,293.2,205.2,293.2z M197.7,301.5c-1.4,0-2.6-1.2-2.6-2.6v-4c0-1.4,1.2-2.6,2.6-2.6s2.6,1.2,2.6,2.6v4
			C200.3,300.3,199.1,301.5,197.7,301.5z M197.7,293.2c-0.9,0-1.6,0.7-1.6,1.6v4c0,0.9,0.7,1.6,1.6,1.6s1.6-0.7,1.6-1.6v-4
			C199.3,294,198.6,293.2,197.7,293.2z M189.4,301.5c-1.4,0-2.6-1.2-2.6-2.6v-4c0-1.4,1.2-2.6,2.6-2.6s2.6,1.2,2.6,2.6v4
			C192,300.3,190.9,301.5,189.4,301.5z M189.4,293.2c-0.9,0-1.6,0.7-1.6,1.6v4c0,0.9,0.7,1.6,1.6,1.6s1.6-0.7,1.6-1.6v-4
			C191,294,190.3,293.2,189.4,293.2z M181.4,301.5c-1.4,0-2.6-1.2-2.6-2.6v-4c0-1.4,1.2-2.6,2.6-2.6s2.6,1.2,2.6,2.6v4
			C184,300.3,182.9,301.5,181.4,301.5z M181.4,293.2c-0.9,0-1.6,0.7-1.6,1.6v4c0,0.9,0.7,1.6,1.6,1.6s1.6-0.7,1.6-1.6v-4
			C183,294,182.3,293.2,181.4,293.2z M173.2,301.5c-1.4,0-2.6-1.2-2.6-2.6v-4c0-1.4,1.2-2.6,2.6-2.6s2.6,1.2,2.6,2.6v4
			C175.8,300.3,174.6,301.5,173.2,301.5z M173.2,293.2c-0.9,0-1.6,0.7-1.6,1.6v4c0,0.9,0.7,1.6,1.6,1.6s1.6-0.7,1.6-1.6v-4
			C174.8,294,174.1,293.2,173.2,293.2z M165.9,301.5c-1.4,0-2.6-1.2-2.6-2.6v-4c0-1.4,1.2-2.6,2.6-2.6s2.6,1.2,2.6,2.6v4
			C168.5,300.3,167.4,301.5,165.9,301.5z M165.9,293.2c-0.9,0-1.6,0.7-1.6,1.6v4c0,0.9,0.7,1.6,1.6,1.6s1.6-0.7,1.6-1.6v-4
			C167.5,294,166.8,293.2,165.9,293.2z M157.7,301.5c-1.4,0-2.6-1.2-2.6-2.6v-4c0-1.4,1.2-2.6,2.6-2.6s2.6,1.2,2.6,2.6v4
			C160.3,300.3,159.1,301.5,157.7,301.5z M157.7,293.2c-0.9,0-1.6,0.7-1.6,1.6v4c0,0.9,0.7,1.6,1.6,1.6s1.6-0.7,1.6-1.6v-4
			C159.3,294,158.6,293.2,157.7,293.2z M149.7,301.5c-1.4,0-2.6-1.2-2.6-2.6v-4c0-1.4,1.2-2.6,2.6-2.6s2.6,1.2,2.6,2.6v4
			C152.3,300.3,151.1,301.5,149.7,301.5z M149.7,293.2c-0.9,0-1.6,0.7-1.6,1.6v4c0,0.9,0.7,1.6,1.6,1.6s1.6-0.7,1.6-1.6v-4
			C151.3,294,150.6,293.2,149.7,293.2z M141.4,301.5c-1.4,0-2.6-1.2-2.6-2.6v-4c0-1.4,1.2-2.6,2.6-2.6s2.6,1.2,2.6,2.6v4
			C144,300.3,142.9,301.5,141.4,301.5z M141.4,293.2c-0.9,0-1.6,0.7-1.6,1.6v4c0,0.9,0.7,1.6,1.6,1.6s1.6-0.7,1.6-1.6v-4
			C143,294,142.3,293.2,141.4,293.2z"/>
	</g>
	<g>
		<rect x="58" y="272.1" fill="#303E5C" width="73.7" height="10.6"/>
	</g>
	<g>
		<rect x="58" y="398.2" fill="#303E5C" width="73.7" height="10.6"/>
	</g>
	<g>
		<path fill="#303E5C" d="M73.2,327.4c-1.7,0-3.5-1.3-3.5-4.2c0-1.3,0.4-2.3,0.8-2.9c0.2-0.2,0.5-0.3,0.7-0.2l1,0.4
			c0.2,0.1,0.3,0.2,0.4,0.4c0.1,0.2,0,0.4-0.1,0.5c-0.2,0.3-0.5,1.1-0.5,1.8c0,0.6,0.1,1,0.4,1.3c0.3,0.3,0.7,0.3,0.8,0.3
			c1.2,0,1.3-1.4,1.3-1.9v-0.7c0-0.3,0.3-0.6,0.6-0.6h1c0.3,0,0.6,0.3,0.6,0.6v0.7c0,0.6,0.3,1.5,1,1.5c0.6,0,0.8-0.4,0.8-1.1
			c0-0.6-0.3-1.2-0.5-1.6c-0.1-0.2-0.1-0.4-0.1-0.5c0.1-0.2,0.2-0.3,0.4-0.4l1-0.3c0.3-0.1,0.5,0,0.7,0.2c0.4,0.5,0.9,1.6,0.9,2.9
			c0,2.3-1.5,3.4-2.9,3.4c-0.9,0-1.7-0.4-2.2-1C75.2,326.8,74.3,327.4,73.2,327.4z M76.6,332.8c0.4-0.7,0.6-1.6,0.6-2.5l1.2,0.2v3.2
			c0,0.3,0.3,0.6,0.6,0.6h1.1c0.3,0,0.6-0.3,0.6-0.6V329c0-0.3-0.2-0.6-0.5-0.6l-4.7-0.6c-0.2,0-0.4,0.1-0.5,0.2
			c-0.1,0.1-0.2,0.4-0.2,0.6c0,0.3,0.1,0.7,0.1,1.2c0,1.4-0.5,2.2-1.5,2.2c-1,0-1.5-0.9-1.5-1.7c0-0.8,0.3-1.5,0.4-1.8
			c0.1-0.2,0.1-0.4,0-0.5c-0.1-0.2-0.2-0.3-0.4-0.4l-1-0.3c-0.3-0.1-0.6,0-0.7,0.3c-0.3,0.5-0.7,1.5-0.7,2.8c0,2.4,1.7,4.2,3.9,4.2
			C74.9,334.4,76,333.8,76.6,332.8z M78.4,345.9c0-0.8-0.2-1.4-0.6-2c-0.1-0.1-0.2-0.3-0.3-0.4c0.6-0.5,1-1.3,1-2.1
			c0-0.7-0.2-1.3-0.5-1.8c0.2-0.1,0.4-0.3,0.4-0.6v-1.1c0-0.2-0.1-0.3-0.2-0.5c-0.1-0.1-0.3-0.2-0.5-0.2c-0.6,0-1.2,0.1-1.9,0.1
			h-5.3c-0.3,0-0.6,0.3-0.6,0.6v1.3c0,0.3,0.3,0.6,0.6,0.6h4.4c0.2,0,0.3,0,0.5,0.1c0.4,0.1,0.9,0.5,0.9,1c0,0.8-0.9,0.9-1.4,0.9
			h-4.3c-0.3,0-0.6,0.3-0.6,0.6v1.3c0,0.3,0.3,0.6,0.6,0.6h4.5c0.2,0,0.3,0,0.5,0.1c0.4,0.1,0.8,0.5,0.8,1c0,0.3,0,0.9-1.6,0.9h-4.1
			c-0.3,0-0.6,0.3-0.6,0.6v1.3c0,0.3,0.3,0.6,0.6,0.6h4.3C77.4,348.9,78.4,347.3,78.4,345.9z M78.4,357.8c0-0.8-0.2-1.4-0.6-2
			c-0.1-0.1-0.2-0.3-0.3-0.4c0.6-0.5,1-1.3,1-2.1c0-0.7-0.2-1.3-0.5-1.8c0.2-0.1,0.4-0.3,0.4-0.6v-1.2c0-0.2-0.1-0.3-0.2-0.5
			c-0.1-0.1-0.3-0.2-0.5-0.2c-0.6,0-1.2,0.1-1.9,0.1h-5.3c-0.3,0-0.6,0.3-0.6,0.6v1.3c0,0.3,0.3,0.6,0.6,0.6h4.4
			c0.2,0,0.3,0,0.5,0.1c0.4,0.1,0.9,0.5,0.9,1c0,0.8-0.9,0.9-1.4,0.9h-4.3c-0.3,0-0.6,0.3-0.6,0.6v1.3c0,0.3,0.3,0.6,0.6,0.6h4.5
			c0.2,0,0.3,0,0.5,0.1c0.4,0.1,0.8,0.5,0.8,1c0,0.3,0,0.9-1.6,0.9h-4.1c-0.3,0-0.6,0.3-0.6,0.6v1.3c0,0.3,0.3,0.6,0.6,0.6h4.3
			C77.4,360.8,78.4,359.2,78.4,357.8z"/>
	</g>
	<g>
		<path fill="#303E5C" d="M119.9,345.7h-13.8c-0.5,0-0.9-0.4-0.9-0.9V343c0-0.5,0.4-0.9,0.9-0.9h10.6l-0.6-1.1
			c-0.1-0.2-0.1-0.5,0-0.8c0.1-0.2,0.3-0.4,0.6-0.5l1.4-0.4c0.4-0.1,0.8,0.1,1,0.4l1.6,3c0.1,0.1,0.1,0.3,0.1,0.4v1.6
			C120.8,345.3,120.4,345.7,119.9,345.7z M113.2,369.2c-5.2,0-8.2-2.1-8.2-5.7c0-1.9,1.2-4,4.2-4.9c-2.7-0.8-4.2-2.6-4.2-5.2
			c0-2.6,2.1-5.4,8-5.5c4.9,0,8.1,2.2,8.1,5.7c0,2.5-1.6,4.2-4.3,5c2.7,0.9,4.3,2.7,4.3,5.1C121,367.2,118.1,369.2,113.2,369.2z
			 M113.1,365.6c1.4,0,4.7-0.2,4.7-1.9c0-1.2-2-1.9-4.9-1.9c-2.9,0-4.7,0.8-4.7,1.9C108.2,365.4,111.6,365.6,113.1,365.6z
			 M113.1,355.5c1.4,0,4.7-0.2,4.7-1.9c0-1.2-2-1.9-4.9-1.9c-2.9,0-4.7,0.8-4.7,1.9C108.2,355.3,111.6,355.5,113.1,355.5z"/>
	</g>
	<g>
		<rect x="87.7" y="289.9" fill="#303E5C" width="2" height="102"/>
	</g>
	<g>
		<rect x="91.7" y="289.9" fill="#303E5C" width="2" height="102"/>
	</g>
	<g>
		<rect x="95.7" y="289.9" fill="#303E5C" width="2" height="102"/>
	</g>
	<g>
		<rect x="99.7" y="289.9" fill="#303E5C" width="2" height="102"/>
	</g>
</g>
<g>
	<g>
		<path fill="#514F4F" d="M350.2,289.9v66.9v35.1h21.9v-16.8c0-0.3,0.1-0.6,0.1-1c0-15,12.1-27.1,27.1-27.1h0H417
			c14.2,0,25.9-11,27-24.9l0.1-32.2H350.2z M359.2,387.1c0,1-1.4,1.9-3,1.9s-3-0.8-3-1.9v-3.5c0-1,1.4-1.9,3-1.9s3,0.8,3,1.9V387.1z
			 M360.2,299.1c0,1-1.4,1.9-3,1.9s-3-0.8-3-1.9v-3.5c0-1,1.4-1.9,3-1.9s3,0.8,3,1.9V299.1z M369.3,387.1c0,1-1.4,1.9-3,1.9
			s-3-0.8-3-1.9v-3.5c0-1,1.4-1.9,3-1.9s3,0.8,3,1.9V387.1z M370.3,299.1c0,1-1.4,1.9-3,1.9s-3-0.8-3-1.9v-3.5c0-1,1.4-1.9,3-1.9
			s3,0.8,3,1.9V299.1z M380.7,299.1c0,1-1.4,1.9-3,1.9s-3-0.8-3-1.9v-3.5c0-1,1.4-1.9,3-1.9s3,0.8,3,1.9V299.1z M390.8,299.1
			c0,1-1.4,1.9-3,1.9s-3-0.8-3-1.9v-3.5c0-1,1.4-1.9,3-1.9s3,0.8,3,1.9V299.1z M401.2,299.1c0,1-1.4,1.9-3,1.9s-3-0.8-3-1.9v-3.5
			c0-1,1.4-1.9,3-1.9s3,0.8,3,1.9V299.1z M411.3,299.1c0,1-1.4,1.9-3,1.9s-3-0.8-3-1.9v-3.5c0-1,1.4-1.9,3-1.9s3,0.8,3,1.9V299.1z
			 M421.7,299.1c0,1-1.4,1.9-3,1.9s-3-0.8-3-1.9v-3.5c0-1,1.4-1.9,3-1.9s3,0.8,3,1.9V299.1z M431.8,299.1c0,1-1.4,1.9-3,1.9
			s-3-0.8-3-1.9v-3.5c0-1,1.4-1.9,3-1.9s3,0.8,3,1.9V299.1z M440.8,299.1c0,1-1.4,1.9-3,1.9s-3-0.8-3-1.9v-3.5c0-1,1.4-1.9,3-1.9
			s3,0.8,3,1.9V299.1z"/>
	</g>
	<g>
		<rect x="290.6" y="268.5" fill="#383838" width="41.6" height="5.3"/>
	</g>
	<g>
		<rect x="278.6" y="283.2" fill="#383838" width="65.3" height="6.7"/>
	</g>
	<g>
		<rect x="278.6" y="391.9" fill="#383838" width="65.3" height="6.7"/>
	</g>
	<g>
		<rect x="278.6" y="289.9" fill="#514F4F" width="65.3" height="102"/>
	</g>
	<g>
		<rect x="343.7" y="289.9" fill="#383838" width="7.3" height="102"/>
	</g>
	<g>
		<rect x="273.6" y="273.1" fill="#383838" width="73.7" height="10.6"/>
	</g>
	<g>
		<rect x="273.6" y="398.2" fill="#383838" width="73.7" height="10.6"/>
	</g>
	<g>
		<rect x="281.2" y="298.1" fill="#FFFFFF" width="54.8" height="84.2"/>
	</g>
	<g>
		<path fill="#383838" d="M289.8,327.4c-1.7,0-3.5-1.3-3.5-4.2c0-1.3,0.4-2.3,0.8-2.9c0.2-0.2,0.5-0.3,0.7-0.2l1,0.4
			c0.2,0.1,0.3,0.2,0.4,0.4c0.1,0.2,0,0.4-0.1,0.5c-0.2,0.3-0.5,1.1-0.5,1.8c0,0.6,0.1,1,0.4,1.3c0.3,0.3,0.7,0.3,0.8,0.3
			c1.2,0,1.3-1.4,1.3-1.9v-0.7c0-0.3,0.3-0.6,0.6-0.6h1c0.3,0,0.6,0.3,0.6,0.6v0.7c0,0.6,0.3,1.5,1,1.5c0.6,0,0.8-0.4,0.8-1.1
			c0-0.6-0.3-1.2-0.5-1.6c-0.1-0.2-0.1-0.4-0.1-0.5c0.1-0.2,0.2-0.3,0.4-0.4l1-0.3c0.3-0.1,0.5,0,0.7,0.2c0.4,0.5,0.9,1.6,0.9,2.9
			c0,2.3-1.5,3.4-2.9,3.4c-0.9,0-1.7-0.4-2.2-1C291.8,326.8,290.9,327.4,289.8,327.4z M293.2,332.8c0.4-0.7,0.6-1.6,0.6-2.5l1.2,0.2
			v3.2c0,0.3,0.3,0.6,0.6,0.6h1.1c0.3,0,0.6-0.3,0.6-0.6V329c0-0.3-0.2-0.6-0.5-0.6l-4.7-0.6c-0.2,0-0.4,0.1-0.5,0.2
			c-0.1,0.1-0.2,0.4-0.2,0.6c0,0.3,0.1,0.7,0.1,1.2c0,1.4-0.5,2.2-1.5,2.2c-1,0-1.5-0.9-1.5-1.7c0-0.8,0.3-1.5,0.4-1.8
			c0.1-0.2,0.1-0.4,0-0.5c-0.1-0.2-0.2-0.3-0.4-0.4l-1-0.3c-0.3-0.1-0.6,0-0.7,0.3c-0.3,0.5-0.7,1.5-0.7,2.8c0,2.4,1.7,4.2,3.9,4.2
			C291.5,334.4,292.6,333.8,293.2,332.8z M295.1,345.9c0-0.8-0.2-1.4-0.6-2c-0.1-0.1-0.2-0.3-0.3-0.4c0.6-0.5,1-1.3,1-2.1
			c0-0.7-0.2-1.3-0.5-1.8c0.2-0.1,0.4-0.3,0.4-0.6v-1.1c0-0.2-0.1-0.3-0.2-0.5c-0.1-0.1-0.3-0.2-0.5-0.2c-0.6,0-1.2,0.1-1.9,0.1
			h-5.3c-0.3,0-0.6,0.3-0.6,0.6v1.3c0,0.3,0.3,0.6,0.6,0.6h4.4c0.2,0,0.3,0,0.5,0.1c0.4,0.1,0.9,0.5,0.9,1c0,0.8-0.9,0.9-1.4,0.9
			h-4.3c-0.3,0-0.6,0.3-0.6,0.6v1.3c0,0.3,0.3,0.6,0.6,0.6h4.5c0.2,0,0.3,0,0.5,0.1c0.4,0.1,0.8,0.5,0.8,1c0,0.3,0,0.9-1.6,0.9h-4.1
			c-0.3,0-0.6,0.3-0.6,0.6v1.3c0,0.3,0.3,0.6,0.6,0.6h4.3C294.1,348.9,295.1,347.3,295.1,345.9z M295.1,357.8c0-0.8-0.2-1.4-0.6-2
			c-0.1-0.1-0.2-0.3-0.3-0.4c0.6-0.5,1-1.3,1-2.1c0-0.7-0.2-1.3-0.5-1.8c0.2-0.1,0.4-0.3,0.4-0.6v-1.2c0-0.2-0.1-0.3-0.2-0.5
			c-0.1-0.1-0.3-0.2-0.5-0.2c-0.6,0-1.2,0.1-1.9,0.1h-5.3c-0.3,0-0.6,0.3-0.6,0.6v1.3c0,0.3,0.3,0.6,0.6,0.6h4.4
			c0.2,0,0.3,0,0.5,0.1c0.4,0.1,0.9,0.5,0.9,1c0,0.8-0.9,0.9-1.4,0.9h-4.3c-0.3,0-0.6,0.3-0.6,0.6v1.3c0,0.3,0.3,0.6,0.6,0.6h4.5
			c0.2,0,0.3,0,0.5,0.1c0.4,0.1,0.8,0.5,0.8,1c0,0.3,0,0.9-1.6,0.9h-4.1c-0.3,0-0.6,0.3-0.6,0.6v1.3c0,0.3,0.3,0.6,0.6,0.6h4.3
			C294.1,360.8,295.1,359.2,295.1,357.8z"/>
	</g>
	<g>
		<path fill="#383838" d="M329.4,331.8h-13.8c-0.5,0-0.9-0.4-0.9-0.9v-1.8c0-0.5,0.4-0.9,0.9-0.9h10.6l-0.6-1.1
			c-0.1-0.2-0.1-0.5,0-0.8c0.1-0.2,0.3-0.4,0.6-0.5l1.4-0.4c0.4-0.1,0.8,0.1,1,0.4l1.6,3c0.1,0.1,0.1,0.3,0.1,0.4v1.6
			C330.3,331.4,329.9,331.8,329.4,331.8z M322.6,355.3c-5.2,0-8.2-2.1-8.2-5.7c0-1.9,1.2-4,4.2-4.9c-2.7-0.8-4.2-2.6-4.2-5.1
			c0-2.6,2.1-5.4,8-5.5c4.9,0,8.1,2.2,8.1,5.7c0,2.5-1.6,4.2-4.3,5c2.7,0.9,4.3,2.7,4.3,5.1C330.5,353.2,327.6,355.3,322.6,355.3z
			 M322.6,351.6c1.4,0,4.7-0.2,4.7-1.9c0-1.2-2-1.9-4.9-1.9c-2.9,0-4.7,0.8-4.7,1.9C317.7,351.4,321.1,351.6,322.6,351.6z
			 M322.6,341.5c1.4,0,4.7-0.2,4.7-1.9c0-1.2-2-1.9-4.9-1.9c-2.9,0-4.7,0.8-4.7,1.9C317.7,341.3,321.1,341.5,322.6,341.5z"/>
	</g>
	<g>
		<rect x="303.6" y="298.1" fill="#E13338" width="8.4" height="84.2"/>
	</g>
</g>
<g>
	<g>
		<path fill="#383838" d="M560.9,289.9v66.9v35.1h21.9v-16.8c0-0.3,0.1-0.6,0.1-1c0-15,12.1-27.1,27.1-27.1h0h17.7
			c14.2,0,25.9-11,27-24.9l0.1-32.2H560.9z M569.9,387.1c0,1-1.4,1.9-3,1.9s-3-0.8-3-1.9v-3.5c0-1,1.4-1.9,3-1.9s3,0.8,3,1.9V387.1z
			 M570.9,299.1c0,1-1.4,1.9-3,1.9s-3-0.8-3-1.9v-3.5c0-1,1.4-1.9,3-1.9s3,0.8,3,1.9V299.1z M580,387.1c0,1-1.4,1.9-3,1.9
			s-3-0.8-3-1.9v-3.5c0-1,1.4-1.9,3-1.9s3,0.8,3,1.9V387.1z M581,299.1c0,1-1.4,1.9-3,1.9s-3-0.8-3-1.9v-3.5c0-1,1.4-1.9,3-1.9
			s3,0.8,3,1.9V299.1z M591.4,299.1c0,1-1.4,1.9-3,1.9s-3-0.8-3-1.9v-3.5c0-1,1.4-1.9,3-1.9s3,0.8,3,1.9V299.1z M601.5,299.1
			c0,1-1.4,1.9-3,1.9s-3-0.8-3-1.9v-3.5c0-1,1.4-1.9,3-1.9s3,0.8,3,1.9V299.1z M611.9,299.1c0,1-1.4,1.9-3,1.9s-3-0.8-3-1.9v-3.5
			c0-1,1.4-1.9,3-1.9s3,0.8,3,1.9V299.1z M622,299.1c0,1-1.4,1.9-3,1.9s-3-0.8-3-1.9v-3.5c0-1,1.4-1.9,3-1.9s3,0.8,3,1.9V299.1z
			 M632.4,299.1c0,1-1.4,1.9-3,1.9s-3-0.8-3-1.9v-3.5c0-1,1.4-1.9,3-1.9s3,0.8,3,1.9V299.1z M642.5,299.1c0,1-1.4,1.9-3,1.9
			s-3-0.8-3-1.9v-3.5c0-1,1.4-1.9,3-1.9s3,0.8,3,1.9V299.1z M651.5,299.1c0,1-1.4,1.9-3,1.9s-3-0.8-3-1.9v-3.5c0-1,1.4-1.9,3-1.9
			s3,0.8,3,1.9V299.1z"/>
	</g>
	<g>
		<rect x="501.4" y="268.5" fill="#383838" width="41.6" height="5.3"/>
	</g>
	<g>
		<rect x="489.3" y="283.2" fill="#383838" width="65.3" height="6.7"/>
	</g>
	<g>
		<rect x="489.3" y="391.9" fill="#383838" width="65.3" height="6.7"/>
	</g>
	<g>
		<rect x="489.3" y="289.9" fill="#E89137" width="65.3" height="102"/>
	</g>
	<g>
		<rect x="554.4" y="289.9" fill="#383838" width="7.3" height="102"/>
	</g>
	<g>
		<rect x="484.3" y="273.1" fill="#383838" width="73.7" height="10.6"/>
	</g>
	<g>
		<rect x="484.3" y="398.2" fill="#383838" width="73.7" height="10.6"/>
	</g>
	<g>
		<path fill="#383838" d="M500.5,327.4c-1.7,0-3.5-1.3-3.5-4.2c0-1.3,0.4-2.3,0.8-2.9c0.2-0.2,0.5-0.3,0.7-0.2l1,0.4
			c0.2,0.1,0.3,0.2,0.4,0.4c0.1,0.2,0,0.4-0.1,0.5c-0.2,0.3-0.5,1.1-0.5,1.8c0,0.6,0.1,1,0.4,1.3c0.3,0.3,0.7,0.3,0.8,0.3
			c1.2,0,1.3-1.4,1.3-1.9v-0.7c0-0.3,0.3-0.6,0.6-0.6h1c0.3,0,0.6,0.3,0.6,0.6v0.7c0,0.6,0.3,1.5,1,1.5c0.6,0,0.8-0.4,0.8-1.1
			c0-0.6-0.3-1.2-0.5-1.6c-0.1-0.2-0.1-0.4-0.1-0.5c0.1-0.2,0.2-0.3,0.4-0.4l1-0.3c0.3-0.1,0.5,0,0.7,0.2c0.4,0.5,0.9,1.6,0.9,2.9
			c0,2.3-1.5,3.4-2.9,3.4c-0.9,0-1.7-0.4-2.2-1C502.6,326.8,501.6,327.4,500.5,327.4z M504,332.8c0.4-0.7,0.6-1.6,0.6-2.5l1.2,0.2
			v3.2c0,0.3,0.3,0.6,0.6,0.6h1.1c0.3,0,0.6-0.3,0.6-0.6V329c0-0.3-0.2-0.6-0.5-0.6l-4.7-0.6c-0.2,0-0.4,0.1-0.5,0.2
			c-0.1,0.1-0.2,0.4-0.2,0.6c0,0.3,0.1,0.7,0.1,1.2c0,1.4-0.5,2.2-1.5,2.2c-1,0-1.5-0.9-1.5-1.7c0-0.8,0.3-1.5,0.4-1.8
			c0.1-0.2,0.1-0.4,0-0.5c-0.1-0.2-0.2-0.3-0.4-0.4l-1-0.3c-0.3-0.1-0.6,0-0.7,0.3c-0.3,0.5-0.7,1.5-0.7,2.8c0,2.4,1.7,4.2,3.9,4.2
			C502.2,334.4,503.4,333.8,504,332.8z M505.8,345.9c0-0.8-0.2-1.4-0.6-2c-0.1-0.1-0.2-0.3-0.3-0.4c0.6-0.5,1-1.3,1-2.1
			c0-0.7-0.2-1.3-0.5-1.8c0.2-0.1,0.4-0.3,0.4-0.6v-1.1c0-0.2-0.1-0.3-0.2-0.5c-0.1-0.1-0.3-0.2-0.5-0.2c-0.6,0-1.2,0.1-1.9,0.1
			h-5.3c-0.3,0-0.6,0.3-0.6,0.6v1.3c0,0.3,0.3,0.6,0.6,0.6h4.4c0.2,0,0.3,0,0.5,0.1c0.4,0.1,0.9,0.5,0.9,1c0,0.8-0.9,0.9-1.4,0.9
			h-4.3c-0.3,0-0.6,0.3-0.6,0.6v1.3c0,0.3,0.3,0.6,0.6,0.6h4.5c0.2,0,0.3,0,0.5,0.1c0.4,0.1,0.8,0.5,0.8,1c0,0.3,0,0.9-1.6,0.9h-4.1
			c-0.3,0-0.6,0.3-0.6,0.6v1.3c0,0.3,0.3,0.6,0.6,0.6h4.3C504.8,348.9,505.8,347.3,505.8,345.9z M505.8,357.8c0-0.8-0.2-1.4-0.6-2
			c-0.1-0.1-0.2-0.3-0.3-0.4c0.6-0.5,1-1.3,1-2.1c0-0.7-0.2-1.3-0.5-1.8c0.2-0.1,0.4-0.3,0.4-0.6v-1.2c0-0.2-0.1-0.3-0.2-0.5
			c-0.1-0.1-0.3-0.2-0.5-0.2c-0.6,0-1.2,0.1-1.9,0.1h-5.3c-0.3,0-0.6,0.3-0.6,0.6v1.3c0,0.3,0.3,0.6,0.6,0.6h4.4
			c0.2,0,0.3,0,0.5,0.1c0.4,0.1,0.9,0.5,0.9,1c0,0.8-0.9,0.9-1.4,0.9h-4.3c-0.3,0-0.6,0.3-0.6,0.6v1.3c0,0.3,0.3,0.6,0.6,0.6h4.5
			c0.2,0,0.3,0,0.5,0.1c0.4,0.1,0.8,0.5,0.8,1c0,0.3,0,0.9-1.6,0.9h-4.1c-0.3,0-0.6,0.3-0.6,0.6v1.3c0,0.3,0.3,0.6,0.6,0.6h4.3
			C504.8,360.8,505.8,359.2,505.8,357.8z"/>
	</g>
	<g>
		<rect x="514.4" y="289.9" fill="#E13338" width="8.4" height="102"/>
	</g>
	<g>
		<rect x="531" y="289.9" fill="#383838" width="2" height="8.1"/>
	</g>
	<g>
		<rect x="538.1" y="289.9" fill="#383838" width="2" height="8.1"/>
	</g>
	<g>
		<rect x="544.8" y="289.9" fill="#383838" width="2" height="8.1"/>
	</g>
	<g>
		<rect x="531" y="321" fill="#383838" width="2" height="72.1"/>
	</g>
	<g>
		<rect x="538.1" y="321" fill="#383838" width="2" height="72.1"/>
	</g>
	<g>
		<rect x="544.8" y="321" fill="#383838" width="2" height="72.1"/>
	</g>
	<g>
		<path fill="#383838" d="M544.5,306.6c0-1.8-1.2-3-2.9-3c-0.3,0-0.6,0-0.9,0.1c0.4-0.5,1-0.9,1.7-1c0.2,0,0.4,0,0.5,0l0.7,0v-1.9
			h-0.5c-0.2,0-0.5,0-0.8,0.1c-1.1,0.1-2.1,0.6-2.8,1.3c-0.9,0.9-1.4,2.3-1.5,3.8c-0.2-0.4-0.5-0.8-0.9-1c0.5-0.4,0.8-1.1,0.8-1.8
			c0-1.2-0.8-2.4-2.7-2.4c-1,0-1.9,0.4-2.3,0.7l-0.3,0.2l0.6,1.7l0.5-0.4c0.3-0.2,0.8-0.4,1.3-0.4c0.6,0,0.9,0.2,0.9,0.7
			c0,0.6-0.8,0.8-1.2,0.8h-1.1v1.8h1.1c0.4,0,1.5,0.1,1.5,1.1c0,0.1,0,0.4-0.3,0.7c-0.2,0.2-0.6,0.3-1,0.3c-0.6,0-1.2-0.2-1.5-0.4
			l-0.5-0.3l-0.6,1.8l0.3,0.2c0.4,0.3,1.3,0.6,2.3,0.6c2,0,3.1-1.1,3.3-2.3c0.4,1.4,1.6,2.3,3,2.3
			C543.4,309.8,544.5,308.1,544.5,306.6z M540.3,306c0.2-0.4,0.6-0.7,1.1-0.7c0.7,0,1.1,0.5,1.1,1.3c0,0.6-0.3,1.4-1,1.4
			c-1.1,0-1.2-1.3-1.2-1.7C540.2,306.2,540.2,306.1,540.3,306z M533.2,311.9c-1.7,0-2.7,1.4-2.7,3.1c0,1.8,1.1,2.9,2.9,2.9
			c0.9,0,1.6-0.2,1.9-0.4l-0.2-0.8c-0.4,0.2-0.9,0.3-1.6,0.3c-1.1,0-2-0.6-2-2h4.1c0-0.1,0-0.3,0-0.5
			C535.6,313.6,535.1,311.9,533.2,311.9z M531.5,314.4c0.1-0.7,0.6-1.7,1.6-1.7c1.2,0,1.5,1,1.5,1.7H531.5z M538.9,314.8l2,3h-1.2
			l-0.9-1.3c-0.2-0.3-0.4-0.7-0.6-1h0c-0.2,0.3-0.4,0.7-0.6,1l-0.8,1.3h-1.2l2.1-3l-2-2.8h1.2l0.8,1.2c0.2,0.3,0.4,0.6,0.6,0.9h0
			c0.2-0.3,0.4-0.6,0.6-1l0.8-1.2h1.1L538.9,314.8z M544.6,311.9c-0.9,0-1.6,0.4-2.1,1.1h0l0-1h-0.9c0,0.6,0,1.2,0,1.9v6.3h1v-3.2h0
			c0.3,0.6,1,0.9,1.8,0.9c1.4,0,2.6-1,2.6-3.1C547,313.1,546,311.9,544.6,311.9z M544.2,317.1c-0.8,0-1.4-0.5-1.6-1.2
			c0-0.1,0-0.3,0-0.4v-1c0-0.1,0-0.3,0.1-0.4c0.2-0.8,0.9-1.3,1.6-1.3c1.1,0,1.7,1,1.7,2.2C546,316.2,545.3,317.1,544.2,317.1z
			 M548.8,317.2c0,0.4-0.3,0.8-0.7,0.8c-0.4,0-0.7-0.3-0.7-0.8c0-0.4,0.3-0.8,0.7-0.8C548.5,316.5,548.8,316.8,548.8,317.2z"/>
	</g>
</g>
</svg>
